{
	"asset":{
		"generator":"Khronos glTF Blender I/O v3.6.27",
		"version":"2.0"
	},
	"scene":0,
	"scenes":[
		{
			"name":"Scene",
			"nodes":[
				0,
				1,
				2,
				3
			]
		}
	],
	"nodes":[
		{
			"mesh":0,
			"name":"pc_Standin",
			"scale":[
				0.800000011920929,
				1.7999999523162842,
				0.800000011920929
			]
		},
		{
			"mesh":1,
			"name":"birdwatcher_Standin",
			"scale":[
				0.800000011920929,
				1.7999999523162842,
				0.800000011920929
			],
			"translation":[
				3.0934529304504395,
				0,
				4.0405168533325195
			]
		},
		{
			"mesh":2,
			"name":"Plane",
			"rotation":[
				0.13052618503570557,
				0,
				0,
				0.9914448857307434
			],
			"scale":[
				100,
				1,
				100
			]
		},
		{
			"name":"Empty",
			"translation":[
				0,
				3.5999999046325684,
				0
			]
		}
	],
	"materials":[
		{
			"doubleSided":true,
			"name":"Material",
			"pbrMetallicRoughness":{
				"baseColorFactor":[
					0.800000011920929,
					0.800000011920929,
					0.800000011920929,
					1
				],
				"metallicFactor":0,
				"roughnessFactor":0.5
			}
		}
	],
	"meshes":[
		{
			"name":"Cube",
			"primitives":[
				{
					"attributes":{
						"POSITION":0,
						"NORMAL":1,
						"TEXCOORD_0":2
					},
					"indices":3,
					"material":0
				}
			]
		},
		{
			"name":"Cube.001",
			"primitives":[
				{
					"attributes":{
						"POSITION":4,
						"NORMAL":5,
						"TEXCOORD_0":6
					},
					"indices":3,
					"material":0
				}
			]
		},
		{
			"name":"Plane",
			"primitives":[
				{
					"attributes":{
						"POSITION":7,
						"NORMAL":8,
						"TEXCOORD_0":9
					},
					"indices":10
				}
			]
		}
	],
	"accessors":[
		{
			"bufferView":0,
			"componentType":5126,
			"count":16,
			"max":[
				1,
				2,
				1
			],
			"min":[
				-1,
				0,
				-1
			],
			"type":"VEC3"
		},
		{
			"bufferView":1,
			"componentType":5126,
			"count":16,
			"type":"VEC3"
		},
		{
			"bufferView":2,
			"componentType":5126,
			"count":16,
			"type":"VEC2"
		},
		{
			"bufferView":3,
			"componentType":5123,
			"count":18,
			"type":"SCALAR"
		},
		{
			"bufferView":4,
			"componentType":5126,
			"count":16,
			"max":[
				1,
				2,
				1
			],
			"min":[
				-1,
				0,
				-1
			],
			"type":"VEC3"
		},
		{
			"bufferView":5,
			"componentType":5126,
			"count":16,
			"type":"VEC3"
		},
		{
			"bufferView":6,
			"componentType":5126,
			"count":16,
			"type":"VEC2"
		},
		{
			"bufferView":7,
			"componentType":5126,
			"count":144,
			"max":[
				1,
				0,
				1
			],
			"min":[
				-1,
				0,
				-1
			],
			"type":"VEC3"
		},
		{
			"bufferView":8,
			"componentType":5126,
			"count":144,
			"type":"VEC3"
		},
		{
			"bufferView":9,
			"componentType":5126,
			"count":144,
			"type":"VEC2"
		},
		{
			"bufferView":10,
			"componentType":5123,
			"count":726,
			"type":"SCALAR"
		}
	],
	"bufferViews":[
		{
			"buffer":0,
			"byteLength":192,
			"byteOffset":0,
			"target":34962
		},
		{
			"buffer":0,
			"byteLength":192,
			"byteOffset":192,
			"target":34962
		},
		{
			"buffer":0,
			"byteLength":128,
			"byteOffset":384,
			"target":34962
		},
		{
			"buffer":0,
			"byteLength":36,
			"byteOffset":512,
			"target":34963
		},
		{
			"buffer":0,
			"byteLength":192,
			"byteOffset":548,
			"target":34962
		},
		{
			"buffer":0,
			"byteLength":192,
			"byteOffset":740,
			"target":34962
		},
		{
			"buffer":0,
			"byteLength":128,
			"byteOffset":932,
			"target":34962
		},
		{
			"buffer":0,
			"byteLength":1728,
			"byteOffset":1060,
			"target":34962
		},
		{
			"buffer":0,
			"byteLength":1728,
			"byteOffset":2788,
			"target":34962
		},
		{
			"buffer":0,
			"byteLength":1152,
			"byteOffset":4516,
			"target":34962
		},
		{
			"buffer":0,
			"byteLength":1452,
			"byteOffset":5668,
			"target":34963
		}
	],
	"buffers":[
		{
			"byteLength":7120,
			"uri":"data:application/octet-stream;base64,"
		}
	]
}
