{
    "asset" : {
        "generator" : "Khronos glTF Blender I/O v1.4.40",
        "version" : "2.0"
    },
    "scene" : 0,
    "scenes" : [
        {
            "extras" : {
                "skinify" : {
                    "connect_mesh" : 0,
                    "connect_parents" : 0,
                    "generate_all" : 0,
                    "thickness" : 0.800000011920929,
                    "finger_thickness" : 0.25,
                    "apply_mod" : 1,
                    "parent_armature" : 1,
                    "sub_level" : 1
                },
                "glTF2ExportSettings" : {
                    "export_animations" : 0,
                    "export_colors" : 0,
                    "export_extras" : 1,
                    "export_format" : "GLTF_EMBEDDED",
                    "export_materials" : "NONE",
                    "export_morph" : 0,
                    "export_skins" : 0,
                    "use_selection" : 1
                }
            },
            "name" : "Scene",
            "nodes" : [
                1,
                2,
                3,
                4,
                5,
                6
            ]
        }
    ],
    "nodes" : [
        {
            "mesh" : 0,
            "name" : "jerryCanCap",
            "rotation" : [
                -0.3291214406490326,
                0,
                0,
                0.9442875981330872
            ],
            "scale" : [
                0.2622586190700531,
                0.06372789293527603,
                0.20698128640651703
            ],
            "translation" : [
                0,
                0.7019009590148926,
                -0.7757682800292969
            ]
        },
        {
            "children" : [
                0
            ],
            "mesh" : 1,
            "name" : "jerryCanBase",
            "rotation" : [
                0,
                0.05455287545919418,
                0,
                0.9985108971595764
            ],
            "scale" : [
                0.19128377735614777,
                0.2423688769340515,
                0.2423688769340515
            ],
            "translation" : [
                1.0407835245132446,
                -0.6257903575897217,
                1.2511307001113892
            ]
        },
        {
            "mesh" : 2,
            "name" : "gun.001",
            "rotation" : [
                0.04428042843937874,
                0.9584345817565918,
                -0.01892641745507717,
                -0.28121915459632874
            ],
            "scale" : [
                0.33540546894073486,
                0.04622206464409828,
                0.08803042024374008
            ],
            "translation" : [
                0.7986304759979248,
                -0.4281906485557556,
                -0.35000574588775635
            ]
        },
        {
            "mesh" : 3,
            "name" : "tireIron",
            "rotation" : [
                0.29727762937545776,
                0.6415808796882629,
                -0.6415808796882629,
                0.29727762937545776
            ],
            "scale" : [
                1.3297990560531616,
                0.5443148016929626,
                1.3297990560531616
            ],
            "translation" : [
                0.5671143531799316,
                -0.848589301109314,
                1.3287971019744873
            ]
        },
        {
            "mesh" : 4,
            "name" : "Cube",
            "rotation" : [
                0.02993069961667061,
                -0.6303720474243164,
                0.03679032623767853,
                0.774843156337738
            ],
            "scale" : [
                0.08664876967668533,
                0.22516170144081116,
                0.15713821351528168
            ],
            "translation" : [
                1.231020450592041,
                -0.3686865568161011,
                -0.06391766667366028
            ]
        },
        {
            "mesh" : 5,
            "name" : "cig",
            "rotation" : [
                0.005281221587210894,
                0.24762921035289764,
                -0.6655364036560059,
                0.7040690183639526
            ],
            "scale" : [
                0.533362090587616,
                0.044532857835292816,
                0.533362090587616
            ],
            "translation" : [
                0.045108504593372345,
                -0.45137855410575867,
                -1.1233195066452026
            ]
        },
        {
            "mesh" : 6,
            "name" : "Grid.002",
            "rotation" : [
                0,
                0.24895203113555908,
                0,
                0.968515932559967
            ],
            "scale" : [
                0.5647642612457275,
                0.5647642612457275,
                0.5647642612457275
            ],
            "translation" : [
                0.9936532974243164,
                -0.8486346006393433,
                2.3526060581207275
            ]
        }
    ],
    "meshes" : [
        {
            "name" : "Cylinder.002",
            "primitives" : [
                {
                    "attributes" : {
                        "POSITION" : 0,
                        "NORMAL" : 1,
                        "TEXCOORD_0" : 2
                    },
                    "indices" : 3
                }
            ]
        },
        {
            "name" : "Cube.018",
            "primitives" : [
                {
                    "attributes" : {
                        "POSITION" : 4,
                        "NORMAL" : 5,
                        "TEXCOORD_0" : 6
                    },
                    "indices" : 7
                }
            ]
        },
        {
            "name" : "Cube.020",
            "primitives" : [
                {
                    "attributes" : {
                        "POSITION" : 8,
                        "NORMAL" : 9,
                        "TEXCOORD_0" : 10
                    },
                    "indices" : 11
                }
            ]
        },
        {
            "name" : "Cylinder.004",
            "primitives" : [
                {
                    "attributes" : {
                        "POSITION" : 12,
                        "NORMAL" : 13,
                        "TEXCOORD_0" : 14
                    },
                    "indices" : 15
                }
            ]
        },
        {
            "name" : "Cube",
            "primitives" : [
                {
                    "attributes" : {
                        "POSITION" : 16,
                        "NORMAL" : 17,
                        "TEXCOORD_0" : 18
                    },
                    "indices" : 19
                }
            ]
        },
        {
            "name" : "Cylinder.005",
            "primitives" : [
                {
                    "attributes" : {
                        "POSITION" : 20,
                        "NORMAL" : 21,
                        "TEXCOORD_0" : 22
                    },
                    "indices" : 23
                }
            ]
        },
        {
            "name" : "Grid",
            "primitives" : [
                {
                    "attributes" : {
                        "POSITION" : 24,
                        "NORMAL" : 25,
                        "TEXCOORD_0" : 26
                    },
                    "indices" : 27
                }
            ]
        }
    ],
    "accessors" : [
        {
            "bufferView" : 0,
            "componentType" : 5126,
            "count" : 193,
            "max" : [
                0.9510565400123596,
                2.5881845951080322,
                1
            ],
            "min" : [
                -0.9510564804077148,
                -1,
                -1
            ],
            "type" : "VEC3"
        },
        {
            "bufferView" : 1,
            "componentType" : 5126,
            "count" : 193,
            "type" : "VEC3"
        },
        {
            "bufferView" : 2,
            "componentType" : 5126,
            "count" : 193,
            "type" : "VEC2"
        },
        {
            "bufferView" : 3,
            "componentType" : 5123,
            "count" : 300,
            "type" : "SCALAR"
        },
        {
            "bufferView" : 4,
            "componentType" : 5126,
            "count" : 308,
            "max" : [
                1,
                1.0795435905456543,
                1
            ],
            "min" : [
                -1,
                -1,
                -1
            ],
            "type" : "VEC3"
        },
        {
            "bufferView" : 5,
            "componentType" : 5126,
            "count" : 308,
            "type" : "VEC3"
        },
        {
            "bufferView" : 6,
            "componentType" : 5126,
            "count" : 308,
            "type" : "VEC2"
        },
        {
            "bufferView" : 7,
            "componentType" : 5123,
            "count" : 456,
            "type" : "SCALAR"
        },
        {
            "bufferView" : 8,
            "componentType" : 5126,
            "count" : 992,
            "max" : [
                3.90328311920166,
                1.384745717048645,
                3.323032855987549
            ],
            "min" : [
                -2.976223945617676,
                -1.384743571281433,
                -1.2580995559692383
            ],
            "type" : "VEC3"
        },
        {
            "bufferView" : 9,
            "componentType" : 5126,
            "count" : 992,
            "type" : "VEC3"
        },
        {
            "bufferView" : 10,
            "componentType" : 5126,
            "count" : 992,
            "type" : "VEC2"
        },
        {
            "bufferView" : 11,
            "componentType" : 5123,
            "count" : 1032,
            "type" : "SCALAR"
        },
        {
            "bufferView" : 12,
            "componentType" : 5126,
            "count" : 323,
            "max" : [
                0.2788899838924408,
                0.5772969126701355,
                0.036243803799152374
            ],
            "min" : [
                -0.02282538451254368,
                -1,
                -0.03624380752444267
            ],
            "type" : "VEC3"
        },
        {
            "bufferView" : 13,
            "componentType" : 5126,
            "count" : 323,
            "type" : "VEC3"
        },
        {
            "bufferView" : 14,
            "componentType" : 5126,
            "count" : 323,
            "type" : "VEC2"
        },
        {
            "bufferView" : 15,
            "componentType" : 5123,
            "count" : 480,
            "type" : "SCALAR"
        },
        {
            "bufferView" : 16,
            "componentType" : 5126,
            "count" : 56,
            "max" : [
                1.1898829936981201,
                1.1876801252365112,
                1.0029064416885376
            ],
            "min" : [
                -1,
                -1,
                -1.1615228652954102
            ],
            "type" : "VEC3"
        },
        {
            "bufferView" : 17,
            "componentType" : 5126,
            "count" : 56,
            "type" : "VEC3"
        },
        {
            "bufferView" : 18,
            "componentType" : 5126,
            "count" : 56,
            "type" : "VEC2"
        },
        {
            "bufferView" : 19,
            "componentType" : 5123,
            "count" : 84,
            "type" : "SCALAR"
        },
        {
            "bufferView" : 20,
            "componentType" : 5126,
            "count" : 148,
            "max" : [
                0.022825386375188828,
                1,
                0.024000030010938644
            ],
            "min" : [
                -0.02282538451254368,
                -1,
                -0.024000030010938644
            ],
            "type" : "VEC3"
        },
        {
            "bufferView" : 21,
            "componentType" : 5126,
            "count" : 148,
            "type" : "VEC3"
        },
        {
            "bufferView" : 22,
            "componentType" : 5126,
            "count" : 148,
            "type" : "VEC2"
        },
        {
            "bufferView" : 23,
            "componentType" : 5123,
            "count" : 240,
            "type" : "SCALAR"
        },
        {
            "bufferView" : 24,
            "componentType" : 5126,
            "count" : 792,
            "max" : [
                0.1367132067680359,
                0.15094992518424988,
                0.16912873089313507
            ],
            "min" : [
                -0.24045875668525696,
                -0.10775433480739594,
                -0.2584214508533478
            ],
            "type" : "VEC3"
        },
        {
            "bufferView" : 25,
            "componentType" : 5126,
            "count" : 792,
            "type" : "VEC3"
        },
        {
            "bufferView" : 26,
            "componentType" : 5126,
            "count" : 792,
            "type" : "VEC2"
        },
        {
            "bufferView" : 27,
            "componentType" : 5123,
            "count" : 1188,
            "type" : "SCALAR"
        }
    ],
    "bufferViews" : [
        {
            "buffer" : 0,
            "byteLength" : 2316,
            "byteOffset" : 0
        },
        {
            "buffer" : 0,
            "byteLength" : 2316,
            "byteOffset" : 2316
        },
        {
            "buffer" : 0,
            "byteLength" : 1544,
            "byteOffset" : 4632
        },
        {
            "buffer" : 0,
            "byteLength" : 600,
            "byteOffset" : 6176
        },
        {
            "buffer" : 0,
            "byteLength" : 3696,
            "byteOffset" : 6776
        },
        {
            "buffer" : 0,
            "byteLength" : 3696,
            "byteOffset" : 10472
        },
        {
            "buffer" : 0,
            "byteLength" : 2464,
            "byteOffset" : 14168
        },
        {
            "buffer" : 0,
            "byteLength" : 912,
            "byteOffset" : 16632
        },
        {
            "buffer" : 0,
            "byteLength" : 11904,
            "byteOffset" : 17544
        },
        {
            "buffer" : 0,
            "byteLength" : 11904,
            "byteOffset" : 29448
        },
        {
            "buffer" : 0,
            "byteLength" : 7936,
            "byteOffset" : 41352
        },
        {
            "buffer" : 0,
            "byteLength" : 2064,
            "byteOffset" : 49288
        },
        {
            "buffer" : 0,
            "byteLength" : 3876,
            "byteOffset" : 51352
        },
        {
            "buffer" : 0,
            "byteLength" : 3876,
            "byteOffset" : 55228
        },
        {
            "buffer" : 0,
            "byteLength" : 2584,
            "byteOffset" : 59104
        },
        {
            "buffer" : 0,
            "byteLength" : 960,
            "byteOffset" : 61688
        },
        {
            "buffer" : 0,
            "byteLength" : 672,
            "byteOffset" : 62648
        },
        {
            "buffer" : 0,
            "byteLength" : 672,
            "byteOffset" : 63320
        },
        {
            "buffer" : 0,
            "byteLength" : 448,
            "byteOffset" : 63992
        },
        {
            "buffer" : 0,
            "byteLength" : 168,
            "byteOffset" : 64440
        },
        {
            "buffer" : 0,
            "byteLength" : 1776,
            "byteOffset" : 64608
        },
        {
            "buffer" : 0,
            "byteLength" : 1776,
            "byteOffset" : 66384
        },
        {
            "buffer" : 0,
            "byteLength" : 1184,
            "byteOffset" : 68160
        },
        {
            "buffer" : 0,
            "byteLength" : 480,
            "byteOffset" : 69344
        },
        {
            "buffer" : 0,
            "byteLength" : 9504,
            "byteOffset" : 69824
        },
        {
            "buffer" : 0,
            "byteLength" : 9504,
            "byteOffset" : 79328
        },
        {
            "buffer" : 0,
            "byteLength" : 6336,
            "byteOffset" : 88832
        },
        {
            "buffer" : 0,
            "byteLength" : 2376,
            "byteOffset" : 95168
        }
    ],
    "buffers" : [
        {
            "byteLength" : 97544,
            "uri" : "data:application/octet-stream;base64,"
        }
    ]
}
