{
    "asset" : {
        "generator" : "Khronos glTF Blender I/O v1.4.40",
        "version" : "2.0"
    },
    "scene" : 0,
    "scenes" : [
        {
            "name" : "Scene",
            "nodes" : [
                0
            ]
        }
    ],
    "nodes" : [
        {
            "mesh" : 0,
            "name" : "rock1.025",
            "rotation" : [
                0.20362238585948944,
                -0.2670312523841858,
                0.18002597987651825,
                0.9245663285255432
            ],
            "scale" : [
                1.3507136106491089,
                1.3507137298583984,
                1.350713849067688
            ],
            "translation" : [
                -54.312992095947266,
                -0.3337462842464447,
                7.988381385803223
            ]
        }
    ],
    "meshes" : [
        {
            "name" : "Cube.026",
            "primitives" : [
                {
                    "attributes" : {
                        "POSITION" : 0,
                        "NORMAL" : 1,
                        "TEXCOORD_0" : 2
                    },
                    "indices" : 3
                }
            ]
        }
    ],
    "accessors" : [
        {
            "bufferView" : 0,
            "componentType" : 5126,
            "count" : 288,
            "max" : [
                7.466468334197998,
                0.798859715461731,
                0.8967645764350891
            ],
            "min" : [
                -0.9049082398414612,
                -9.63626766204834,
                -13.770295143127441
            ],
            "type" : "VEC3"
        },
        {
            "bufferView" : 1,
            "componentType" : 5126,
            "count" : 288,
            "type" : "VEC3"
        },
        {
            "bufferView" : 2,
            "componentType" : 5126,
            "count" : 288,
            "type" : "VEC2"
        },
        {
            "bufferView" : 3,
            "componentType" : 5123,
            "count" : 288,
            "type" : "SCALAR"
        }
    ],
    "bufferViews" : [
        {
            "buffer" : 0,
            "byteLength" : 3456,
            "byteOffset" : 0
        },
        {
            "buffer" : 0,
            "byteLength" : 3456,
            "byteOffset" : 3456
        },
        {
            "buffer" : 0,
            "byteLength" : 2304,
            "byteOffset" : 6912
        },
        {
            "buffer" : 0,
            "byteLength" : 576,
            "byteOffset" : 9216
        }
    ],
    "buffers" : [
        {
            "byteLength" : 9792,
            "uri" : "data:application/octet-stream;base64,"
        }
    ]
}
