{
    "asset" : {
        "generator" : "Khronos glTF Blender I/O v1.4.40",
        "version" : "2.0"
    },
    "scene" : 0,
    "scenes" : [
        {
            "name" : "Scene",
            "nodes" : [
                0,
                1,
                2,
                3,
                4,
                5,
                6,
                7,
                8,
                9,
                10,
                11,
                12,
                13,
                14,
                15,
                16,
                17,
                18,
                19,
                20,
                21,
                22,
                23,
                24,
                25
            ]
        }
    ],
    "nodes" : [
        {
            "mesh" : 0,
            "name" : "Cube.002",
            "scale" : [
                0.3119494915008545,
                0.45601320266723633,
                0.3119494915008545
            ],
            "translation" : [
                3.849635601043701,
                0.8735251426696777,
                -0.5358551740646362
            ]
        },
        {
            "mesh" : 1,
            "name" : "Cube.003",
            "scale" : [
                0.2173590213060379,
                0.31773921847343445,
                0.2173590213060379
            ],
            "translation" : [
                3.857664108276367,
                -0.6660583019256592,
                -0.5358551740646362
            ]
        },
        {
            "mesh" : 1,
            "name" : "Cube.004",
            "rotation" : [
                0,
                -0.9995412826538086,
                0,
                -0.03028637357056141
            ],
            "scale" : [
                0.15610280632972717,
                0.22819380462169647,
                0.15610280632972717
            ],
            "translation" : [
                3.857664108276367,
                -0.03455185890197754,
                -0.5358551740646362
            ]
        },
        {
            "mesh" : 2,
            "name" : "Cube.005",
            "rotation" : [
                0.006916442420333624,
                -0.4351453483104706,
                -0.3714841902256012,
                0.8201220631599426
            ],
            "scale" : [
                0.03826724365353584,
                0.018300019204616547,
                0.1266103982925415
            ],
            "translation" : [
                3.7680747509002686,
                0.3891485929489136,
                -0.30795666575431824
            ]
        },
        {
            "mesh" : 2,
            "name" : "Cube.006",
            "rotation" : [
                0.17440065741539001,
                0.2242354154586792,
                0.8470507860183716,
                0.44923028349876404
            ],
            "scale" : [
                0.03826724365353584,
                0.018300019204616547,
                0.1266103982925415
            ],
            "translation" : [
                3.951021432876587,
                0.015448451042175293,
                -0.30730724334716797
            ]
        },
        {
            "mesh" : 2,
            "name" : "Cube.007",
            "rotation" : [
                -0.34939974546432495,
                0.03444384038448334,
                0.8703073263168335,
                0.3453962504863739
            ],
            "scale" : [
                0.02800184115767479,
                0.013390937820076942,
                0.09264645725488663
            ],
            "translation" : [
                3.258732318878174,
                0.7645647525787354,
                -0.46106284856796265
            ]
        },
        {
            "mesh" : 2,
            "name" : "Cube.008",
            "rotation" : [
                0.034139033406972885,
                0.211686372756958,
                0.9132538437843323,
                0.3463969826698303
            ],
            "scale" : [
                0.02800184115767479,
                0.013390937820076942,
                0.09264645725488663
            ],
            "translation" : [
                4.693329334259033,
                0.4537620544433594,
                -0.3822835683822632
            ]
        },
        {
            "mesh" : 2,
            "name" : "Cube.009",
            "rotation" : [
                0.5938417911529541,
                -0.3484536409378052,
                0.7167956233024597,
                0.11016354709863663
            ],
            "scale" : [
                0.02800184115767479,
                0.013390937820076942,
                0.09264645725488663
            ],
            "translation" : [
                4.410855770111084,
                -0.06362748146057129,
                -0.5177059173583984
            ]
        },
        {
            "mesh" : 2,
            "name" : "Cube.010",
            "rotation" : [
                0.6666281819343567,
                -0.6436761617660522,
                0.006276603788137436,
                0.37583035230636597
            ],
            "scale" : [
                0.02800184115767479,
                0.013390937820076942,
                0.09264645725488663
            ],
            "translation" : [
                3.428710460662842,
                0.31411030888557434,
                -0.45316457748413086
            ]
        },
        {
            "mesh" : 2,
            "name" : "Cube.011",
            "rotation" : [
                0.39277490973472595,
                -0.8566060662269592,
                -0.23147304356098175,
                0.24160748720169067
            ],
            "scale" : [
                0.02800184115767479,
                0.013390937820076942,
                0.09264645725488663
            ],
            "translation" : [
                3.2244949340820312,
                0.7163671255111694,
                -0.6668363213539124
            ]
        },
        {
            "mesh" : 2,
            "name" : "Cube.012",
            "rotation" : [
                0.4212988018989563,
                -0.7164621353149414,
                0.4034988582134247,
                -0.3825937509536743
            ],
            "scale" : [
                0.02800184115767479,
                0.013390937820076942,
                0.09264645725488663
            ],
            "translation" : [
                3.618962526321411,
                -0.34187114238739014,
                -0.43468260765075684
            ]
        },
        {
            "mesh" : 2,
            "name" : "Cube.013",
            "rotation" : [
                0.36169612407684326,
                -0.34511449933052063,
                0.3636423349380493,
                -0.7860255241394043
            ],
            "scale" : [
                0.02800184115767479,
                0.013390937820076942,
                0.09264645725488663
            ],
            "translation" : [
                4.064321517944336,
                0.7536075115203857,
                -0.41284650564193726
            ]
        },
        {
            "mesh" : 2,
            "name" : "Cube.014",
            "rotation" : [
                0.35246312618255615,
                -0.39282551407814026,
                0.35941874980926514,
                -0.7695947289466858
            ],
            "scale" : [
                0.02800184115767479,
                0.013390937820076942,
                0.09264645725488663
            ],
            "translation" : [
                4.7729058265686035,
                0.2120983600616455,
                -0.48064956068992615
            ]
        },
        {
            "mesh" : 2,
            "name" : "Cube.015",
            "rotation" : [
                0.06378369778394699,
                -0.31668078899383545,
                0.5533917546272278,
                -0.7677255272865295
            ],
            "scale" : [
                0.03114328160881996,
                0.014893224462866783,
                0.1030401736497879
            ],
            "translation" : [
                3.6888842582702637,
                0.13660848140716553,
                -0.7413166761398315
            ]
        },
        {
            "mesh" : 2,
            "name" : "Cube.016",
            "rotation" : [
                -0.0046274736523628235,
                -0.5384016036987305,
                0.4871862232685089,
                -0.6875695586204529
            ],
            "scale" : [
                0.03114328160881996,
                0.014893224462866783,
                0.1030401736497879
            ],
            "translation" : [
                3.638322591781616,
                0.9832483530044556,
                -0.6096036434173584
            ]
        },
        {
            "mesh" : 2,
            "name" : "Cube.017",
            "rotation" : [
                0.19341635704040527,
                -0.19381146132946014,
                0.2874101996421814,
                -0.9178358316421509
            ],
            "scale" : [
                0.03114328160881996,
                0.014893224462866783,
                0.1030401736497879
            ],
            "translation" : [
                3.9314167499542236,
                0.730323076248169,
                -0.3040015697479248
            ]
        },
        {
            "mesh" : 2,
            "name" : "Cube.018",
            "rotation" : [
                -0.1912343055009842,
                -0.14512555301189423,
                0.5817517638206482,
                -0.777131199836731
            ],
            "scale" : [
                0.03114328160881996,
                0.014893224462866783,
                0.1030401736497879
            ],
            "translation" : [
                4.620713233947754,
                0.5300276279449463,
                -0.7146440744400024
            ]
        },
        {
            "mesh" : 2,
            "name" : "Cube.019",
            "rotation" : [
                0.01741902530193329,
                -0.5130410194396973,
                0.4417175352573395,
                -0.7357792258262634
            ],
            "scale" : [
                0.02503669634461403,
                0.011972957290709019,
                0.08283603191375732
            ],
            "translation" : [
                4.472599506378174,
                0.7823771238327026,
                -0.5783058404922485
            ]
        },
        {
            "mesh" : 2,
            "name" : "Cube.020",
            "rotation" : [
                -0.3085947334766388,
                -0.8132780194282532,
                -0.26638898253440857,
                -0.4151928722858429
            ],
            "scale" : [
                0.02503669634461403,
                0.011972957290709019,
                0.08283603191375732
            ],
            "translation" : [
                4.0654191970825195,
                0.4251565933227539,
                -0.6648655533790588
            ]
        },
        {
            "mesh" : 2,
            "name" : "Cube.021",
            "rotation" : [
                -0.06283201277256012,
                -0.8675850629806519,
                -0.3741089403629303,
                -0.321544349193573
            ],
            "scale" : [
                0.02503669634461403,
                0.011972957290709019,
                0.08283603191375732
            ],
            "translation" : [
                3.993159770965576,
                1.164507269859314,
                -0.564646303653717
            ]
        },
        {
            "mesh" : 2,
            "name" : "Cube.022",
            "rotation" : [
                0.3513981103897095,
                -0.6800683736801147,
                0.48005300760269165,
                -0.4284570813179016
            ],
            "scale" : [
                0.02503669634461403,
                0.011972957290709019,
                0.08283603191375732
            ],
            "translation" : [
                3.6078388690948486,
                0.7535449862480164,
                -0.4807855784893036
            ]
        },
        {
            "mesh" : 2,
            "name" : "Cube.023",
            "rotation" : [
                0.4043355882167816,
                0.004205004312098026,
                0.8315942883491516,
                -0.3807176947593689
            ],
            "scale" : [
                0.02503669634461403,
                0.011972957290709019,
                0.08283603191375732
            ],
            "translation" : [
                3.366389036178589,
                0.9804232120513916,
                -0.46989503502845764
            ]
        },
        {
            "mesh" : 2,
            "name" : "Cube.024",
            "rotation" : [
                -0.30800825357437134,
                0.44519782066345215,
                0.7563048005104065,
                -0.3673320710659027
            ],
            "scale" : [
                0.02503669634461403,
                0.011972957290709019,
                0.08283603191375732
            ],
            "translation" : [
                4.4753804206848145,
                0.3888130187988281,
                -0.4137853682041168
            ]
        },
        {
            "mesh" : 2,
            "name" : "Cube.025",
            "rotation" : [
                -0.25228720903396606,
                0.12727364897727966,
                0.846928060054779,
                -0.45040589570999146
            ],
            "scale" : [
                0.02503669634461403,
                0.011972957290709019,
                0.08283603191375732
            ],
            "translation" : [
                4.673163890838623,
                -0.20844918489456177,
                -0.6636226177215576
            ]
        },
        {
            "mesh" : 2,
            "name" : "Cube.026",
            "rotation" : [
                0.2794910967350006,
                -0.24792109429836273,
                0.7917259335517883,
                -0.48331138491630554
            ],
            "scale" : [
                0.02503669634461403,
                0.011972957290709019,
                0.08283603191375732
            ],
            "translation" : [
                3.276533842086792,
                0.3034577965736389,
                -0.6644114255905151
            ]
        },
        {
            "mesh" : 2,
            "name" : "Cube.027",
            "rotation" : [
                -0.3287476897239685,
                0.6203289031982422,
                0.476751446723938,
                -0.5289849042892456
            ],
            "scale" : [
                0.01935194618999958,
                0.009254416450858116,
                0.0640275627374649
            ],
            "translation" : [
                3.208372116088867,
                0.536148726940155,
                -0.4945509731769562
            ]
        }
    ],
    "meshes" : [
        {
            "name" : "Cube.011",
            "primitives" : [
                {
                    "attributes" : {
                        "POSITION" : 0,
                        "NORMAL" : 1,
                        "TEXCOORD_0" : 2
                    },
                    "indices" : 3
                }
            ]
        },
        {
            "name" : "Cube.012",
            "primitives" : [
                {
                    "attributes" : {
                        "POSITION" : 4,
                        "NORMAL" : 5,
                        "TEXCOORD_0" : 6
                    },
                    "indices" : 7
                }
            ]
        },
        {
            "name" : "Cube.013",
            "primitives" : [
                {
                    "attributes" : {
                        "POSITION" : 8,
                        "NORMAL" : 9,
                        "TEXCOORD_0" : 10
                    },
                    "indices" : 11
                }
            ]
        }
    ],
    "accessors" : [
        {
            "bufferView" : 0,
            "componentType" : 5126,
            "count" : 96,
            "max" : [
                0.8395062685012817,
                0.8395062685012817,
                0.8395062685012817
            ],
            "min" : [
                -0.8395062685012817,
                -5.985824108123779,
                -0.8395062685012817
            ],
            "type" : "VEC3"
        },
        {
            "bufferView" : 1,
            "componentType" : 5126,
            "count" : 96,
            "type" : "VEC3"
        },
        {
            "bufferView" : 2,
            "componentType" : 5126,
            "count" : 96,
            "type" : "VEC2"
        },
        {
            "bufferView" : 3,
            "componentType" : 5123,
            "count" : 144,
            "type" : "SCALAR"
        },
        {
            "bufferView" : 4,
            "componentType" : 5126,
            "count" : 192,
            "max" : [
                4.316499710083008,
                5.046298027038574,
                0.8395062685012817
            ],
            "min" : [
                7.152557373046875e-07,
                -0.38642263412475586,
                -0.8395062685012817
            ],
            "type" : "VEC3"
        },
        {
            "bufferView" : 5,
            "componentType" : 5126,
            "count" : 192,
            "type" : "VEC3"
        },
        {
            "bufferView" : 6,
            "componentType" : 5126,
            "count" : 192,
            "type" : "VEC2"
        },
        {
            "bufferView" : 7,
            "componentType" : 5123,
            "count" : 288,
            "type" : "SCALAR"
        },
        {
            "bufferView" : 8,
            "componentType" : 5126,
            "count" : 24,
            "max" : [
                1,
                1,
                1
            ],
            "min" : [
                -1,
                -1,
                -1
            ],
            "type" : "VEC3"
        },
        {
            "bufferView" : 9,
            "componentType" : 5126,
            "count" : 24,
            "type" : "VEC3"
        },
        {
            "bufferView" : 10,
            "componentType" : 5126,
            "count" : 24,
            "type" : "VEC2"
        },
        {
            "bufferView" : 11,
            "componentType" : 5123,
            "count" : 36,
            "type" : "SCALAR"
        }
    ],
    "bufferViews" : [
        {
            "buffer" : 0,
            "byteLength" : 1152,
            "byteOffset" : 0
        },
        {
            "buffer" : 0,
            "byteLength" : 1152,
            "byteOffset" : 1152
        },
        {
            "buffer" : 0,
            "byteLength" : 768,
            "byteOffset" : 2304
        },
        {
            "buffer" : 0,
            "byteLength" : 288,
            "byteOffset" : 3072
        },
        {
            "buffer" : 0,
            "byteLength" : 2304,
            "byteOffset" : 3360
        },
        {
            "buffer" : 0,
            "byteLength" : 2304,
            "byteOffset" : 5664
        },
        {
            "buffer" : 0,
            "byteLength" : 1536,
            "byteOffset" : 7968
        },
        {
            "buffer" : 0,
            "byteLength" : 576,
            "byteOffset" : 9504
        },
        {
            "buffer" : 0,
            "byteLength" : 288,
            "byteOffset" : 10080
        },
        {
            "buffer" : 0,
            "byteLength" : 288,
            "byteOffset" : 10368
        },
        {
            "buffer" : 0,
            "byteLength" : 192,
            "byteOffset" : 10656
        },
        {
            "buffer" : 0,
            "byteLength" : 72,
            "byteOffset" : 10848
        }
    ],
    "buffers" : [
        {
            "byteLength" : 10920,
            "uri" : "data:application/octet-stream;base64,"
        }
    ]
}
