{
    "asset" : {
        "generator" : "Khronos glTF Blender I/O v1.4.40",
        "version" : "2.0"
    },
    "scene" : 0,
    "scenes" : [
        {
            "extras" : {
                "skinify" : {
                    "connect_mesh" : 0,
                    "connect_parents" : 0,
                    "generate_all" : 0,
                    "thickness" : 0.800000011920929,
                    "finger_thickness" : 0.25,
                    "apply_mod" : 1,
                    "parent_armature" : 1,
                    "sub_level" : 1
                },
                "glTF2ExportSettings" : {
                    "export_animations" : 0,
                    "export_apply" : 1,
                    "export_cameras" : 1,
                    "export_colors" : 0,
                    "export_extras" : 1,
                    "export_format" : "GLTF_EMBEDDED",
                    "export_materials" : "NONE",
                    "export_morph" : 0,
                    "export_skins" : 0,
                    "use_selection" : 1
                }
            },
            "name" : "Scene",
            "nodes" : [
                0,
                1,
                2,
                3,
                4,
                5,
                6,
                7,
                8,
                9,
                10,
                11,
                12,
                13,
                14,
                15,
                16,
                17,
                18,
                19,
                20,
                21,
                22,
                23,
                24,
                25
            ]
        }
    ],
    "nodes" : [
        {
            "mesh" : 0,
            "name" : "Cube.084",
            "rotation" : [
                0,
                0.4865568280220032,
                0,
                0.8736489415168762
            ],
            "scale" : [
                0.2826281189918518,
                0.41315069794654846,
                0.2826281189918518
            ],
            "translation" : [
                -26.487777709960938,
                0.8307977914810181,
                4.588557720184326
            ]
        },
        {
            "mesh" : 1,
            "name" : "Cube.085",
            "rotation" : [
                0,
                0.4865568280220032,
                0,
                0.8736489415168762
            ],
            "scale" : [
                0.19692857563495636,
                0.28787362575531006,
                0.19692857563495636
            ],
            "translation" : [
                -26.48394775390625,
                -0.564073920249939,
                4.582374095916748
            ]
        },
        {
            "mesh" : 1,
            "name" : "Cube.086",
            "rotation" : [
                0,
                -0.8879842162132263,
                0,
                0.4598739743232727
            ],
            "scale" : [
                0.1414300799369812,
                0.2067449539899826,
                0.1414300799369812
            ],
            "translation" : [
                -26.48394775390625,
                0.008074671030044556,
                4.582374095916748
            ]
        },
        {
            "mesh" : 2,
            "name" : "Cube.087",
            "rotation" : [
                -0.1747056096792221,
                0.018871713429689407,
                -0.32791200280189514,
                0.9282217025756836
            ],
            "scale" : [
                0.034670352935791016,
                0.016579927876591682,
                0.1147097796201706
            ],
            "translation" : [
                -26.351146697998047,
                0.3919498026371002,
                4.760096073150635
            ]
        },
        {
            "mesh" : 2,
            "name" : "Cube.088",
            "rotation" : [
                0.5645033121109009,
                0.41447916626930237,
                0.6551691293716431,
                0.28336623311042786
            ],
            "scale" : [
                0.034670352935791016,
                0.016579926013946533,
                0.1147097796201706
            ],
            "translation" : [
                -26.26337432861328,
                0.053375244140625,
                4.619491100311279
            ]
        },
        {
            "mesh" : 2,
            "name" : "Cube.089",
            "rotation" : [
                0.11820127815008163,
                0.19814684987068176,
                0.930345892906189,
                0.2849961817264557
            ],
            "scale" : [
                0.025369836017489433,
                0.012132270261645317,
                0.08393824100494385
            ],
            "translation" : [
                -26.71204948425293,
                0.732079029083252,
                5.079379558563232
            ]
        },
        {
            "mesh" : 2,
            "name" : "Cube.090",
            "rotation" : [
                0.47417542338371277,
                0.3534814715385437,
                0.7812526226043701,
                0.19963183999061584
            ],
            "scale" : [
                0.025369836017489433,
                0.012132269330322742,
                0.08393824100494385
            ],
            "translation" : [
                -25.967018127441406,
                0.45048999786376953,
                4.011962413787842
            ]
        },
        {
            "mesh" : 2,
            "name" : "Cube.091",
            "rotation" : [
                0.8675711750984192,
                -0.2508253753185272,
                0.337289959192276,
                0.2657867968082428
            ],
            "scale" : [
                0.025369836017489433,
                0.012132269330322742,
                0.08393824100494385
            ],
            "translation" : [
                -26.20607566833496,
                -0.01826801896095276,
                4.16493558883667
            ]
        },
        {
            "mesh" : 2,
            "name" : "Cube.092",
            "rotation" : [
                0.5854529142379761,
                -0.3794841766357422,
                -0.3188689351081848,
                0.641528844833374
            ],
            "scale" : [
                0.025369837880134583,
                0.012132269330322742,
                0.08393824845552444
            ],
            "translation" : [
                -26.624881744384766,
                0.3239646852016449,
                4.952221393585205
            ]
        },
        {
            "mesh" : 2,
            "name" : "Cube.093",
            "rotation" : [
                0.23052258789539337,
                -0.630817174911499,
                -0.3933334946632385,
                0.6278676390647888
            ],
            "scale" : [
                0.025369837880134583,
                0.012132269330322742,
                0.08393824845552444
            ],
            "translation" : [
                -26.88688087463379,
                0.6884117126464844,
                5.007589817047119
            ]
        },
        {
            "mesh" : 2,
            "name" : "Cube.094",
            "rotation" : [
                0.5643923878669739,
                -0.8120899796485901,
                0.14753057062625885,
                0.014346917159855366
            ],
            "scale" : [
                0.025369836017489433,
                0.012132270261645317,
                0.08393824100494385
            ],
            "translation" : [
                -26.519887924194336,
                -0.2703584134578705,
                4.8144965171813965
            ]
        },
        {
            "mesh" : 2,
            "name" : "Cube.095",
            "rotation" : [
                0.49292808771133423,
                -0.6839549541473389,
                0.1417100578546524,
                -0.5187926292419434
            ],
            "scale" : [
                0.025369837880134583,
                0.012132269330322742,
                0.08393824100494385
            ],
            "translation" : [
                -26.290616989135742,
                0.7221517562866211,
                4.481875896453857
            ]
        },
        {
            "mesh" : 2,
            "name" : "Cube.096",
            "rotation" : [
                0.4828066825866699,
                -0.7176430821418762,
                0.14251253008842468,
                -0.4812237620353699
            ],
            "scale" : [
                0.025369834154844284,
                0.012132269330322742,
                0.08393824100494385
            ],
            "translation" : [
                -26.004823684692383,
                0.231541246175766,
                3.9037442207336426
            ]
        },
        {
            "mesh" : 2,
            "name" : "Cube.097",
            "rotation" : [
                0.324981153011322,
                -0.6502099633216858,
                0.452435702085495,
                -0.5166392922401428
            ],
            "scale" : [
                0.02821599692106247,
                0.013493351638317108,
                0.09335501492023468
            ],
            "translation" : [
                -26.722719192504883,
                0.16314697265625,
                4.614364147186279
            ]
        },
        {
            "mesh" : 2,
            "name" : "Cube.098",
            "rotation" : [
                0.2330009490251541,
                -0.8049156069755554,
                0.42788127064704895,
                -0.3387314975261688
            ],
            "scale" : [
                0.028216000646352768,
                0.013493351638317108,
                0.09335501492023468
            ],
            "translation" : [
                -26.645387649536133,
                0.9302077293395996,
                4.716141223907471
            ]
        },
        {
            "mesh" : 2,
            "name" : "Cube.099",
            "rotation" : [
                0.30881935358047485,
                -0.6159023642539978,
                0.15698762238025665,
                -0.7075660824775696
            ],
            "scale" : [
                0.02821599878370762,
                0.013493349775671959,
                0.09335501492023468
            ],
            "translation" : [
                -26.270179748535156,
                0.7010558843612671,
                4.636168003082275
            ]
        },
        {
            "mesh" : 2,
            "name" : "Cube.100",
            "rotation" : [
                0.11598359793424606,
                -0.5049072504043579,
                0.60129314661026,
                -0.608328104019165
            ],
            "scale" : [
                0.02821599878370762,
                0.013493351638317108,
                0.09335501492023468
            ],
            "translation" : [
                -26.257658004760742,
                0.5195870399475098,
                3.9093470573425293
            ]
        },
        {
            "mesh" : 2,
            "name" : "Cube.101",
            "rotation" : [
                0.23013876378536224,
                -0.8062160611152649,
                0.3774307668209076,
                -0.3931892514228821
            ],
            "scale" : [
                0.0226833987981081,
                0.010847571305930614,
                0.07504993677139282
            ],
            "translation" : [
                -26.223299026489258,
                0.7482172250747681,
                4.088469982147217
            ]
        },
        {
            "mesh" : 2,
            "name" : "Cube.102",
            "rotation" : [
                -0.39921683073043823,
                -0.9125343561172485,
                -0.08258156478404999,
                0.03297315165400505
            ],
            "scale" : [
                0.02268339693546295,
                0.01084757037460804,
                0.07504993677139282
            ],
            "translation" : [
                -26.48421287536621,
                0.42457327246665955,
                4.360808849334717
            ]
        },
        {
            "mesh" : 2,
            "name" : "Cube.103",
            "rotation" : [
                -0.23691841959953308,
                -0.9144144654273987,
                -0.2962685823440552,
                0.1412125676870346
            ],
            "scale" : [
                0.02268339693546295,
                0.010847571305930614,
                0.07504994422197342
            ],
            "translation" : [
                -26.44148826599121,
                1.09442937374115,
                4.464273929595947
            ]
        },
        {
            "mesh" : 2,
            "name" : "Cube.104",
            "rotation" : [
                0.5405716300010681,
                -0.8026097416877747,
                0.24842265248298645,
                -0.043429166078567505
            ],
            "scale" : [
                0.0226833987981081,
                0.010847571305930614,
                0.07504993677139282
            ],
            "translation" : [
                -26.560705184936523,
                0.7220951318740845,
                4.801071643829346
            ]
        },
        {
            "mesh" : 2,
            "name" : "Cube.105",
            "rotation" : [
                0.7578651905059814,
                -0.1815670281648636,
                0.5297892689704895,
                -0.3346596658229828
            ],
            "scale" : [
                0.0226833987981081,
                0.01084757037460804,
                0.07504994422197342
            ],
            "translation" : [
                -26.667497634887695,
                0.9276481866836548,
                4.99224328994751
            ]
        },
        {
            "mesh" : 2,
            "name" : "Cube.106",
            "rotation" : [
                0.09889405220746994,
                0.2102188616991043,
                0.8106083869934082,
                -0.5375333428382874
            ],
            "scale" : [
                0.02268339693546295,
                0.010847571305930614,
                0.07504993677139282
            ],
            "translation" : [
                -26.095251083374023,
                0.39164578914642334,
                4.164809703826904
            ]
        },
        {
            "mesh" : 2,
            "name" : "Cube.107",
            "rotation" : [
                0.19166815280914307,
                -0.10795558243989944,
                0.862669825553894,
                -0.4554225206375122
            ],
            "scale" : [
                0.02268339693546295,
                0.010847571305930614,
                0.07504993677139282
            ],
            "translation" : [
                -26.19333839416504,
                -0.14947733283042908,
                3.8932862281799316
            ]
        },
        {
            "mesh" : 2,
            "name" : "Cube.108",
            "rotation" : [
                0.6293967962265015,
                -0.45175451040267944,
                0.555702269077301,
                -0.3016168177127838
            ],
            "scale" : [
                0.02268339693546295,
                0.01084757037460804,
                0.07504993677139282
            ],
            "translation" : [
                -26.860187530517578,
                0.31431344151496887,
                4.968663692474365
            ]
        },
        {
            "mesh" : 2,
            "name" : "Cube.109",
            "rotation" : [
                -0.05524341017007828,
                0.2845684885978699,
                0.5764678120613098,
                -0.7639724016189575
            ],
            "scale" : [
                0.01753297820687294,
                0.008384556509554386,
                0.05800935626029968
            ],
            "translation" : [
                -26.761869430541992,
                0.5251327753067017,
                5.102194309234619
            ]
        }
    ],
    "meshes" : [
        {
            "name" : "Cube.020",
            "primitives" : [
                {
                    "attributes" : {
                        "POSITION" : 0,
                        "NORMAL" : 1,
                        "TEXCOORD_0" : 2
                    },
                    "indices" : 3
                }
            ]
        },
        {
            "name" : "Cube.021",
            "primitives" : [
                {
                    "attributes" : {
                        "POSITION" : 4,
                        "NORMAL" : 5,
                        "TEXCOORD_0" : 6
                    },
                    "indices" : 7
                }
            ]
        },
        {
            "name" : "Cube.022",
            "primitives" : [
                {
                    "attributes" : {
                        "POSITION" : 8,
                        "NORMAL" : 9,
                        "TEXCOORD_0" : 10
                    },
                    "indices" : 11
                }
            ]
        }
    ],
    "accessors" : [
        {
            "bufferView" : 0,
            "componentType" : 5126,
            "count" : 96,
            "max" : [
                0.8395062685012817,
                0.8395062685012817,
                0.8395062685012817
            ],
            "min" : [
                -0.8395062685012817,
                -5.985824108123779,
                -0.8395062685012817
            ],
            "type" : "VEC3"
        },
        {
            "bufferView" : 1,
            "componentType" : 5126,
            "count" : 96,
            "type" : "VEC3"
        },
        {
            "bufferView" : 2,
            "componentType" : 5126,
            "count" : 96,
            "type" : "VEC2"
        },
        {
            "bufferView" : 3,
            "componentType" : 5123,
            "count" : 144,
            "type" : "SCALAR"
        },
        {
            "bufferView" : 4,
            "componentType" : 5126,
            "count" : 192,
            "max" : [
                4.316499710083008,
                5.046298027038574,
                0.8395062685012817
            ],
            "min" : [
                7.152557373046875e-07,
                -0.38642263412475586,
                -0.8395062685012817
            ],
            "type" : "VEC3"
        },
        {
            "bufferView" : 5,
            "componentType" : 5126,
            "count" : 192,
            "type" : "VEC3"
        },
        {
            "bufferView" : 6,
            "componentType" : 5126,
            "count" : 192,
            "type" : "VEC2"
        },
        {
            "bufferView" : 7,
            "componentType" : 5123,
            "count" : 288,
            "type" : "SCALAR"
        },
        {
            "bufferView" : 8,
            "componentType" : 5126,
            "count" : 24,
            "max" : [
                1,
                1,
                1
            ],
            "min" : [
                -1,
                -1,
                -1
            ],
            "type" : "VEC3"
        },
        {
            "bufferView" : 9,
            "componentType" : 5126,
            "count" : 24,
            "type" : "VEC3"
        },
        {
            "bufferView" : 10,
            "componentType" : 5126,
            "count" : 24,
            "type" : "VEC2"
        },
        {
            "bufferView" : 11,
            "componentType" : 5123,
            "count" : 36,
            "type" : "SCALAR"
        }
    ],
    "bufferViews" : [
        {
            "buffer" : 0,
            "byteLength" : 1152,
            "byteOffset" : 0
        },
        {
            "buffer" : 0,
            "byteLength" : 1152,
            "byteOffset" : 1152
        },
        {
            "buffer" : 0,
            "byteLength" : 768,
            "byteOffset" : 2304
        },
        {
            "buffer" : 0,
            "byteLength" : 288,
            "byteOffset" : 3072
        },
        {
            "buffer" : 0,
            "byteLength" : 2304,
            "byteOffset" : 3360
        },
        {
            "buffer" : 0,
            "byteLength" : 2304,
            "byteOffset" : 5664
        },
        {
            "buffer" : 0,
            "byteLength" : 1536,
            "byteOffset" : 7968
        },
        {
            "buffer" : 0,
            "byteLength" : 576,
            "byteOffset" : 9504
        },
        {
            "buffer" : 0,
            "byteLength" : 288,
            "byteOffset" : 10080
        },
        {
            "buffer" : 0,
            "byteLength" : 288,
            "byteOffset" : 10368
        },
        {
            "buffer" : 0,
            "byteLength" : 192,
            "byteOffset" : 10656
        },
        {
            "buffer" : 0,
            "byteLength" : 72,
            "byteOffset" : 10848
        }
    ],
    "buffers" : [
        {
            "byteLength" : 10920,
            "uri" : "data:application/octet-stream;base64,"
        }
    ]
}
