{
    "asset" : {
        "generator" : "Khronos glTF Blender I/O v1.4.40",
        "version" : "2.0"
    },
    "scene" : 0,
    "scenes" : [
        {
            "extras" : {
                "skinify" : {
                    "connect_mesh" : 0,
                    "connect_parents" : 0,
                    "generate_all" : 0,
                    "thickness" : 0.800000011920929,
                    "finger_thickness" : 0.25,
                    "apply_mod" : 1,
                    "parent_armature" : 1,
                    "sub_level" : 1
                },
                "glTF2ExportSettings" : {
                    "export_animations" : 0,
                    "export_apply" : 1,
                    "export_cameras" : 1,
                    "export_colors" : 0,
                    "export_extras" : 1,
                    "export_format" : "GLTF_EMBEDDED",
                    "export_materials" : "NONE",
                    "export_morph" : 0,
                    "export_skins" : 0,
                    "use_selection" : 1
                }
            },
            "name" : "Scene",
            "nodes" : [
                0,
                1,
                2,
                3,
                4,
                5,
                6,
                7,
                8,
                9,
                10,
                11,
                12,
                13,
                14,
                15,
                16,
                17
            ]
        }
    ],
    "nodes" : [
        {
            "mesh" : 0,
            "name" : "Cube.110",
            "rotation" : [
                0,
                0.9950257539749146,
                0,
                -0.09961892664432526
            ],
            "scale" : [
                0.2826281189918518,
                0.41315069794654846,
                0.2826281189918518
            ],
            "translation" : [
                19.87681770324707,
                0.5116181373596191,
                -8.874889373779297
            ]
        },
        {
            "mesh" : 1,
            "name" : "Cube.111",
            "rotation" : [
                0,
                0.06943732500076294,
                0,
                0.9975863099098206
            ],
            "scale" : [
                0.1414300799369812,
                0.2067449539899826,
                0.1414300799369812
            ],
            "translation" : [
                19.869688034057617,
                -0.311104953289032,
                -8.873448371887207
            ]
        },
        {
            "mesh" : 2,
            "name" : "Cube.112",
            "rotation" : [
                -0.3703252673149109,
                0.8593911528587341,
                0.030124768614768982,
                0.3512812554836273
            ],
            "scale" : [
                0.034670352935791016,
                0.016579927876591682,
                0.1147097796201706
            ],
            "translation" : [
                19.908313751220703,
                0.07277017831802368,
                -9.0919189453125
            ]
        },
        {
            "mesh" : 2,
            "name" : "Cube.113",
            "rotation" : [
                0.8254636526107788,
                0.42465758323669434,
                -0.2579154074192047,
                -0.2678719758987427
            ],
            "scale" : [
                0.034670352935791016,
                0.016579926013946533,
                0.1147097796201706
            ],
            "translation" : [
                19.74573516845703,
                -0.2658044099807739,
                -9.059636116027832
            ]
        },
        {
            "mesh" : 2,
            "name" : "Cube.114",
            "rotation" : [
                0.9007849097251892,
                0.3402469754219055,
                0.26096269488334656,
                -0.06868065893650055
            ],
            "scale" : [
                0.025369836017489433,
                0.012132270261645317,
                0.08393824100494385
            ],
            "translation" : [
                20.388120651245117,
                0.4128994047641754,
                -9.047440528869629
            ]
        },
        {
            "mesh" : 2,
            "name" : "Cube.115",
            "rotation" : [
                -0.060163311660289764,
                0.43808311223983765,
                -0.6639374494552612,
                0.6030345559120178
            ],
            "scale" : [
                0.025369837880134583,
                0.012132269330322742,
                0.08393824845552444
            ],
            "translation" : [
                20.23575782775879,
                0.004785060882568359,
                -9.023923873901367
            ]
        },
        {
            "mesh" : 2,
            "name" : "Cube.116",
            "rotation" : [
                -0.2694494128227234,
                0.3257397413253784,
                -0.36776208877563477,
                0.8282764554023743
            ],
            "scale" : [
                0.025369837880134583,
                0.012132269330322742,
                0.08393824845552444
            ],
            "translation" : [
                20.45548439025879,
                0.36923208832740784,
                -8.870855331420898
            ]
        },
        {
            "mesh" : 2,
            "name" : "Cube.117",
            "rotation" : [
                0.3595225214958191,
                -0.30931755900382996,
                -0.45939916372299194,
                0.7510117292404175
            ],
            "scale" : [
                0.025369836017489433,
                0.012132270261645317,
                0.08393824100494385
            ],
            "translation" : [
                20.06348991394043,
                -0.589538037776947,
                -9.00616455078125
            ]
        },
        {
            "mesh" : 2,
            "name" : "Cube.118",
            "rotation" : [
                0.3258017599582672,
                -0.7477357387542725,
                -0.3961225152015686,
                0.4217005968093872
            ],
            "scale" : [
                0.025369837880134583,
                0.012132269330322742,
                0.08393824100494385
            ],
            "translation" : [
                19.664079666137695,
                0.40297213196754456,
                -8.945563316345215
            ]
        },
        {
            "mesh" : 2,
            "name" : "Cube.119",
            "rotation" : [
                0.5442849397659302,
                -0.7323592305183411,
                -0.11859464645385742,
                0.39158543944358826
            ],
            "scale" : [
                0.02821599692106247,
                0.013493351638317108,
                0.09335501492023468
            ],
            "translation" : [
                20.056474685668945,
                -0.15603266656398773,
                -8.721305847167969
            ]
        },
        {
            "mesh" : 2,
            "name" : "Cube.120",
            "rotation" : [
                0.48522379994392395,
                -0.6305145025253296,
                -0.04392838850617409,
                0.6042181849479675
            ],
            "scale" : [
                0.028216000646352768,
                0.013493351638317108,
                0.09335501492023468
            ],
            "translation" : [
                20.07771873474121,
                0.6110280752182007,
                -8.847352027893066
            ]
        },
        {
            "mesh" : 2,
            "name" : "Cube.121",
            "rotation" : [
                0.26671266555786133,
                -0.8939629793167114,
                -0.22108566761016846,
                0.2842809557914734
            ],
            "scale" : [
                0.02821599878370762,
                0.013493349775671959,
                0.09335501492023468
            ],
            "translation" : [
                19.762550354003906,
                0.38187626004219055,
                -9.066092491149902
            ]
        },
        {
            "mesh" : 2,
            "name" : "Cube.122",
            "rotation" : [
                -0.23432205617427826,
                -0.33210983872413635,
                0.3335970342159271,
                0.850593626499176
            ],
            "scale" : [
                0.02268339693546295,
                0.01084757037460804,
                0.07504993677139282
            ],
            "translation" : [
                19.708372116088867,
                0.10539364814758301,
                -8.721566200256348
            ]
        },
        {
            "mesh" : 2,
            "name" : "Cube.123",
            "rotation" : [
                -0.36598876118659973,
                -0.2335171401500702,
                0.09978774189949036,
                0.8953012824058533
            ],
            "scale" : [
                0.02268339693546295,
                0.010847571305930614,
                0.07504994422197342
            ],
            "translation" : [
                19.75453758239746,
                0.775249719619751,
                -8.823542594909668
            ]
        },
        {
            "mesh" : 2,
            "name" : "Cube.124",
            "rotation" : [
                0.4426592290401459,
                -0.3585782051086426,
                -0.39747244119644165,
                0.7193678617477417
            ],
            "scale" : [
                0.0226833987981081,
                0.010847571305930614,
                0.07504993677139282
            ],
            "translation" : [
                20.081649780273438,
                0.40291550755500793,
                -8.9672212600708
            ]
        },
        {
            "mesh" : 2,
            "name" : "Cube.125",
            "rotation" : [
                0.7871782779693604,
                -0.379242867231369,
                -0.48516660928726196,
                0.03374236077070236
            ],
            "scale" : [
                0.0226833987981081,
                0.01084757037460804,
                0.07504994422197342
            ],
            "translation" : [
                20.294105529785156,
                0.6084685325622559,
                -9.020258903503418
            ]
        },
        {
            "mesh" : 2,
            "name" : "Cube.126",
            "rotation" : [
                0.7599450945854187,
                -0.456209659576416,
                -0.3569715917110443,
                0.29483476281166077
            ],
            "scale" : [
                0.02268339693546295,
                0.01084757037460804,
                0.07504993677139282
            ],
            "translation" : [
                20.408836364746094,
                -0.004866182804107666,
                -8.863665580749512
            ]
        },
        {
            "mesh" : 2,
            "name" : "Cube.127",
            "rotation" : [
                0.5071293711662292,
                -0.5881499648094177,
                0.279619038105011,
                -0.5645464062690735
            ],
            "scale" : [
                0.01753297820687294,
                0.008384556509554386,
                0.05800935626029968
            ],
            "translation" : [
                20.438858032226562,
                0.20595315098762512,
                -9.026744842529297
            ]
        }
    ],
    "meshes" : [
        {
            "name" : "Cube.011",
            "primitives" : [
                {
                    "attributes" : {
                        "POSITION" : 0,
                        "NORMAL" : 1,
                        "TEXCOORD_0" : 2
                    },
                    "indices" : 3
                }
            ]
        },
        {
            "name" : "Cube.012",
            "primitives" : [
                {
                    "attributes" : {
                        "POSITION" : 4,
                        "NORMAL" : 5,
                        "TEXCOORD_0" : 6
                    },
                    "indices" : 7
                }
            ]
        },
        {
            "name" : "Cube.013",
            "primitives" : [
                {
                    "attributes" : {
                        "POSITION" : 8,
                        "NORMAL" : 9,
                        "TEXCOORD_0" : 10
                    },
                    "indices" : 11
                }
            ]
        }
    ],
    "accessors" : [
        {
            "bufferView" : 0,
            "componentType" : 5126,
            "count" : 96,
            "max" : [
                0.8395062685012817,
                0.8395062685012817,
                0.8395062685012817
            ],
            "min" : [
                -0.8395062685012817,
                -5.985824108123779,
                -0.8395062685012817
            ],
            "type" : "VEC3"
        },
        {
            "bufferView" : 1,
            "componentType" : 5126,
            "count" : 96,
            "type" : "VEC3"
        },
        {
            "bufferView" : 2,
            "componentType" : 5126,
            "count" : 96,
            "type" : "VEC2"
        },
        {
            "bufferView" : 3,
            "componentType" : 5123,
            "count" : 144,
            "type" : "SCALAR"
        },
        {
            "bufferView" : 4,
            "componentType" : 5126,
            "count" : 192,
            "max" : [
                4.316499710083008,
                5.046298027038574,
                0.8395062685012817
            ],
            "min" : [
                7.152557373046875e-07,
                -0.38642263412475586,
                -0.8395062685012817
            ],
            "type" : "VEC3"
        },
        {
            "bufferView" : 5,
            "componentType" : 5126,
            "count" : 192,
            "type" : "VEC3"
        },
        {
            "bufferView" : 6,
            "componentType" : 5126,
            "count" : 192,
            "type" : "VEC2"
        },
        {
            "bufferView" : 7,
            "componentType" : 5123,
            "count" : 288,
            "type" : "SCALAR"
        },
        {
            "bufferView" : 8,
            "componentType" : 5126,
            "count" : 24,
            "max" : [
                1,
                1,
                1
            ],
            "min" : [
                -1,
                -1,
                -1
            ],
            "type" : "VEC3"
        },
        {
            "bufferView" : 9,
            "componentType" : 5126,
            "count" : 24,
            "type" : "VEC3"
        },
        {
            "bufferView" : 10,
            "componentType" : 5126,
            "count" : 24,
            "type" : "VEC2"
        },
        {
            "bufferView" : 11,
            "componentType" : 5123,
            "count" : 36,
            "type" : "SCALAR"
        }
    ],
    "bufferViews" : [
        {
            "buffer" : 0,
            "byteLength" : 1152,
            "byteOffset" : 0
        },
        {
            "buffer" : 0,
            "byteLength" : 1152,
            "byteOffset" : 1152
        },
        {
            "buffer" : 0,
            "byteLength" : 768,
            "byteOffset" : 2304
        },
        {
            "buffer" : 0,
            "byteLength" : 288,
            "byteOffset" : 3072
        },
        {
            "buffer" : 0,
            "byteLength" : 2304,
            "byteOffset" : 3360
        },
        {
            "buffer" : 0,
            "byteLength" : 2304,
            "byteOffset" : 5664
        },
        {
            "buffer" : 0,
            "byteLength" : 1536,
            "byteOffset" : 7968
        },
        {
            "buffer" : 0,
            "byteLength" : 576,
            "byteOffset" : 9504
        },
        {
            "buffer" : 0,
            "byteLength" : 288,
            "byteOffset" : 10080
        },
        {
            "buffer" : 0,
            "byteLength" : 288,
            "byteOffset" : 10368
        },
        {
            "buffer" : 0,
            "byteLength" : 192,
            "byteOffset" : 10656
        },
        {
            "buffer" : 0,
            "byteLength" : 72,
            "byteOffset" : 10848
        }
    ],
    "buffers" : [
        {
            "byteLength" : 10920,
            "uri" : "data:application/octet-stream;base64,"
        }
    ]
}
