{
    "asset" : {
        "generator" : "Khronos glTF Blender I/O v1.4.40",
        "version" : "2.0"
    },
    "scene" : 0,
    "scenes" : [
        {
            "name" : "Scene",
            "nodes" : [
                0,
                1,
                2,
                3,
                4,
                5,
                6,
                7,
                8,
                9,
                10,
                11,
                12,
                13,
                14,
                15,
                16,
                17,
                18
            ]
        }
    ],
    "nodes" : [
        {
            "mesh" : 0,
            "name" : "Cube.028",
            "rotation" : [
                0,
                -0.8460854887962341,
                0,
                0.5330471992492676
            ],
            "scale" : [
                0.22426718473434448,
                0.28316837549209595,
                0.22426718473434448
            ],
            "translation" : [
                -13.288046836853027,
                0.0872708186507225,
                -1.289064645767212
            ]
        },
        {
            "mesh" : 1,
            "name" : "Cube.029",
            "rotation" : [
                0,
                -0.8460854887962341,
                0,
                0.5330471992492676
            ],
            "scale" : [
                0.1562640517950058,
                0.19730503857135773,
                0.1562640517950058
            ],
            "translation" : [
                -13.290536880493164,
                -0.8687570691108704,
                -1.283858060836792
            ]
        },
        {
            "mesh" : 2,
            "name" : "Cube.031",
            "rotation" : [
                0.3179941475391388,
                -0.9258463978767395,
                -0.19216668605804443,
                0.06899354606866837
            ],
            "scale" : [
                0.026155052706599236,
                0.012249650433659554,
                0.08989118784666061
            ],
            "translation" : [
                -13.410515785217285,
                -0.21351024508476257,
                -1.4126883745193481
            ]
        },
        {
            "mesh" : 2,
            "name" : "Cube.032",
            "rotation" : [
                -0.6237135529518127,
                -0.26055908203125,
                0.5990760326385498,
                0.4291834831237793
            ],
            "scale" : [
                0.02492963708937168,
                0.012738991528749466,
                0.09044541418552399
            ],
            "translation" : [
                -13.467720985412598,
                -0.44556498527526855,
                -1.2942544221878052
            ]
        },
        {
            "mesh" : 2,
            "name" : "Cube.034",
            "rotation" : [
                -0.7544931173324585,
                -0.18024255335330963,
                0.515691876411438,
                0.3637508749961853
            ],
            "scale" : [
                0.01903054304420948,
                0.009061028249561787,
                0.06548170000314713
            ],
            "translation" : [
                -13.649494171142578,
                -0.17338743805885315,
                -0.7896170616149902
            ]
        },
        {
            "mesh" : 2,
            "name" : "Cube.035",
            "rotation" : [
                -0.2899247705936432,
                -0.2789499759674072,
                0.884526789188385,
                -0.2360992729663849
            ],
            "scale" : [
                0.019963011145591736,
                0.008946413174271584,
                0.06315553933382034
            ],
            "translation" : [
                -13.474002838134766,
                -0.4946683645248413,
                -0.9307619333267212
            ]
        },
        {
            "mesh" : 2,
            "name" : "Cube.038",
            "rotation" : [
                -0.11682242900133133,
                -0.05820108950138092,
                0.5715387463569641,
                -0.8101287484169006
            ],
            "scale" : [
                0.017876842990517616,
                0.009501520544290543,
                0.06604978442192078
            ],
            "translation" : [
                -13.282057762145996,
                -0.6674480438232422,
                -1.4700512886047363
            ]
        },
        {
            "mesh" : 2,
            "name" : "Cube.039",
            "rotation" : [
                -0.11487153172492981,
                0.4810827374458313,
                0.499864399433136,
                -0.710985004901886
            ],
            "scale" : [
                0.01832595281302929,
                0.009348506107926369,
                0.06574688851833344
            ],
            "translation" : [
                -13.43444538116455,
                0.012806050479412079,
                -1.1880252361297607
            ]
        },
        {
            "mesh" : 2,
            "name" : "Cube.040",
            "rotation" : [
                -0.11621962487697601,
                0.44174858927726746,
                0.4898010790348053,
                -0.7425941824913025
            ],
            "scale" : [
                0.018285056576132774,
                0.009324988350272179,
                0.06603078544139862
            ],
            "translation" : [
                -13.610404014587402,
                -0.3234521448612213,
                -0.7074841260910034
            ]
        },
        {
            "mesh" : 2,
            "name" : "Cube.041",
            "rotation" : [
                -0.43421703577041626,
                0.48075565695762634,
                0.3489503860473633,
                -0.6771729588508606
            ],
            "scale" : [
                0.020010871812701225,
                0.010509569197893143,
                0.07347537577152252
            ],
            "translation" : [
                -13.1049165725708,
                -0.370328813791275,
                -1.3295376300811768
            ]
        },
        {
            "mesh" : 2,
            "name" : "Cube.042",
            "rotation" : [
                -0.41466793417930603,
                0.29474937915802,
                0.25577789545059204,
                -0.8220407366752625
            ],
            "scale" : [
                0.02109510824084282,
                0.010325172916054726,
                0.07137680798768997
            ],
            "translation" : [
                -13.17463493347168,
                0.155405193567276,
                -1.4032061100006104
            ]
        },
        {
            "mesh" : 2,
            "name" : "Cube.043",
            "rotation" : [
                -0.14007365703582764,
                0.6732571125030518,
                0.316849946975708,
                -0.6532307267189026
            ],
            "scale" : [
                0.021332429721951485,
                0.009890757501125336,
                0.0735173225402832
            ],
            "translation" : [
                -13.463778495788574,
                -0.0016526058316230774,
                -1.3079924583435059
            ]
        },
        {
            "mesh" : 2,
            "name" : "Cube.044",
            "rotation" : [
                -0.5941486358642578,
                0.5801607966423035,
                0.148300439119339,
                -0.537036120891571
            ],
            "scale" : [
                0.020238634198904037,
                0.010621760040521622,
                0.07200556993484497
            ],
            "translation" : [
                -13.411428451538086,
                -0.1260291337966919,
                -0.7335511445999146
            ]
        },
        {
            "mesh" : 2,
            "name" : "Cube.045",
            "rotation" : [
                -0.3644457459449768,
                0.34905731678009033,
                0.2501941919326782,
                -0.8262815475463867
            ],
            "scale" : [
                0.016949327662587166,
                0.008192017674446106,
                0.05815356969833374
            ],
            "translation" : [
                -13.453868865966797,
                0.030671052634716034,
                -0.871914803981781
            ]
        },
        {
            "mesh" : 2,
            "name" : "Cube.046",
            "rotation" : [
                0.06089233607053757,
                -0.08222676068544388,
                -0.40309542417526245,
                -0.9094201326370239
            ],
            "scale" : [
                0.01676170527935028,
                0.008105870336294174,
                0.05931511148810387
            ],
            "translation" : [
                -13.27135944366455,
                -0.1911504566669464,
                -1.109094262123108
            ]
        },
        {
            "mesh" : 2,
            "name" : "Cube.047",
            "rotation" : [
                0.2830357849597931,
                -0.19040964543819427,
                -0.2525789439678192,
                -0.9054495096206665
            ],
            "scale" : [
                0.01771787740290165,
                0.008034168742597103,
                0.05668140947818756
            ],
            "translation" : [
                -13.313920021057129,
                0.2679608166217804,
                -1.1870574951171875
            ]
        },
        {
            "mesh" : 2,
            "name" : "Cube.048",
            "rotation" : [
                -0.2188541293144226,
                2.8007057153445203e-06,
                0.5532037615776062,
                -0.8037838339805603
            ],
            "scale" : [
                0.01609073206782341,
                0.008513831533491611,
                0.05860918387770653
            ],
            "translation" : [
                -13.248708724975586,
                0.012767337262630463,
                -1.4629549980163574
            ]
        },
        {
            "mesh" : 2,
            "name" : "Cube.050",
            "rotation" : [
                -0.8040814399719238,
                0.5481058359146118,
                0.1425447016954422,
                0.18087029457092285
            ],
            "scale" : [
                0.01634986512362957,
                0.008485015481710434,
                0.0580211840569973
            ],
            "translation" : [
                -13.561420440673828,
                -0.21371859312057495,
                -0.9211740493774414
            ]
        },
        {
            "mesh" : 2,
            "name" : "Cube.051",
            "rotation" : [
                -0.8510545492172241,
                0.44892480969429016,
                0.2379959374666214,
                -0.1324031502008438
            ],
            "scale" : [
                0.01636127382516861,
                0.008255373686552048,
                0.05955156683921814
            ],
            "translation" : [
                -13.460794448852539,
                -0.5845977067947388,
                -0.7153741717338562
            ]
        }
    ],
    "meshes" : [
        {
            "name" : "Cube.014",
            "primitives" : [
                {
                    "attributes" : {
                        "POSITION" : 0,
                        "NORMAL" : 1,
                        "TEXCOORD_0" : 2
                    },
                    "indices" : 3
                }
            ]
        },
        {
            "name" : "Cube.015",
            "primitives" : [
                {
                    "attributes" : {
                        "POSITION" : 4,
                        "NORMAL" : 5,
                        "TEXCOORD_0" : 6
                    },
                    "indices" : 7
                }
            ]
        },
        {
            "name" : "Cube.016",
            "primitives" : [
                {
                    "attributes" : {
                        "POSITION" : 8,
                        "NORMAL" : 9,
                        "TEXCOORD_0" : 10
                    },
                    "indices" : 11
                }
            ]
        }
    ],
    "accessors" : [
        {
            "bufferView" : 0,
            "componentType" : 5126,
            "count" : 96,
            "max" : [
                0.8395062685012817,
                0.8395062685012817,
                0.8395062685012817
            ],
            "min" : [
                -0.8395062685012817,
                -5.985824108123779,
                -0.8395062685012817
            ],
            "type" : "VEC3"
        },
        {
            "bufferView" : 1,
            "componentType" : 5126,
            "count" : 96,
            "type" : "VEC3"
        },
        {
            "bufferView" : 2,
            "componentType" : 5126,
            "count" : 96,
            "type" : "VEC2"
        },
        {
            "bufferView" : 3,
            "componentType" : 5123,
            "count" : 144,
            "type" : "SCALAR"
        },
        {
            "bufferView" : 4,
            "componentType" : 5126,
            "count" : 192,
            "max" : [
                4.316499710083008,
                5.046298027038574,
                0.8395062685012817
            ],
            "min" : [
                7.152557373046875e-07,
                -0.38642263412475586,
                -0.8395062685012817
            ],
            "type" : "VEC3"
        },
        {
            "bufferView" : 5,
            "componentType" : 5126,
            "count" : 192,
            "type" : "VEC3"
        },
        {
            "bufferView" : 6,
            "componentType" : 5126,
            "count" : 192,
            "type" : "VEC2"
        },
        {
            "bufferView" : 7,
            "componentType" : 5123,
            "count" : 288,
            "type" : "SCALAR"
        },
        {
            "bufferView" : 8,
            "componentType" : 5126,
            "count" : 24,
            "max" : [
                1,
                1,
                1
            ],
            "min" : [
                -1,
                -1,
                -1
            ],
            "type" : "VEC3"
        },
        {
            "bufferView" : 9,
            "componentType" : 5126,
            "count" : 24,
            "type" : "VEC3"
        },
        {
            "bufferView" : 10,
            "componentType" : 5126,
            "count" : 24,
            "type" : "VEC2"
        },
        {
            "bufferView" : 11,
            "componentType" : 5123,
            "count" : 36,
            "type" : "SCALAR"
        }
    ],
    "bufferViews" : [
        {
            "buffer" : 0,
            "byteLength" : 1152,
            "byteOffset" : 0
        },
        {
            "buffer" : 0,
            "byteLength" : 1152,
            "byteOffset" : 1152
        },
        {
            "buffer" : 0,
            "byteLength" : 768,
            "byteOffset" : 2304
        },
        {
            "buffer" : 0,
            "byteLength" : 288,
            "byteOffset" : 3072
        },
        {
            "buffer" : 0,
            "byteLength" : 2304,
            "byteOffset" : 3360
        },
        {
            "buffer" : 0,
            "byteLength" : 2304,
            "byteOffset" : 5664
        },
        {
            "buffer" : 0,
            "byteLength" : 1536,
            "byteOffset" : 7968
        },
        {
            "buffer" : 0,
            "byteLength" : 576,
            "byteOffset" : 9504
        },
        {
            "buffer" : 0,
            "byteLength" : 288,
            "byteOffset" : 10080
        },
        {
            "buffer" : 0,
            "byteLength" : 288,
            "byteOffset" : 10368
        },
        {
            "buffer" : 0,
            "byteLength" : 192,
            "byteOffset" : 10656
        },
        {
            "buffer" : 0,
            "byteLength" : 72,
            "byteOffset" : 10848
        }
    ],
    "buffers" : [
        {
            "byteLength" : 10920,
            "uri" : "data:application/octet-stream;base64,"
        }
    ]
}
