{
    "asset" : {
        "generator" : "Khronos glTF Blender I/O v1.4.40",
        "version" : "2.0"
    },
    "scene" : 0,
    "scenes" : [
        {
            "name" : "Scene",
            "nodes" : [
                0,
                1,
                2,
                3,
                4,
                5,
                6,
                7,
                8,
                9,
                10,
                11,
                12,
                13,
                14,
                15,
                16,
                17,
                18
            ]
        }
    ],
    "nodes" : [
        {
            "mesh" : 0,
            "name" : "Cube.065",
            "rotation" : [
                0,
                -0.9985993504524231,
                0,
                -0.052909258753061295
            ],
            "scale" : [
                0.22426718473434448,
                0.28316837549209595,
                0.22426718473434448
            ],
            "translation" : [
                -22.878129959106445,
                0.0872708261013031,
                -7.011409282684326
            ]
        },
        {
            "mesh" : 1,
            "name" : "Cube.066",
            "rotation" : [
                0,
                -0.9985993504524231,
                0,
                -0.052909258753061295
            ],
            "scale" : [
                0.1562640517950058,
                0.19730503857135773,
                0.1562640517950058
            ],
            "translation" : [
                -22.883869171142578,
                -0.8687571287155151,
                -7.012016773223877
            ]
        },
        {
            "mesh" : 2,
            "name" : "Cube.067",
            "rotation" : [
                0.37059786915779114,
                -0.7959501147270203,
                0.02656170167028904,
                -0.47792792320251465
            ],
            "scale" : [
                0.026155052706599236,
                0.012249650433659554,
                0.08989118784666061
            ],
            "translation" : [
                -22.802509307861328,
                -0.21351024508476257,
                -7.168132781982422
            ]
        },
        {
            "mesh" : 2,
            "name" : "Cube.068",
            "rotation" : [
                -0.8550916314125061,
                -0.46046513319015503,
                0.1293398141860962,
                0.20015324652194977
            ],
            "scale" : [
                0.02492963708937168,
                0.012738991528749466,
                0.09044541418552399
            ],
            "translation" : [
                -22.93324851989746,
                -0.44556498527526855,
                -7.182497501373291
            ]
        },
        {
            "mesh" : 2,
            "name" : "Cube.069",
            "rotation" : [
                -0.9137808680534363,
                -0.35711196064949036,
                -0.014228238724172115,
                0.19306258857250214
            ],
            "scale" : [
                0.01903054304420948,
                0.009061028249561787,
                0.06548170000314713
            ],
            "translation" : [
                -23.46961784362793,
                -0.17338743805885315,
                -7.185290336608887
            ]
        },
        {
            "mesh" : 2,
            "name" : "Cube.070",
            "rotation" : [
                -0.7472113966941833,
                -0.09157276898622513,
                0.5550848245620728,
                -0.35379427671432495
            ],
            "scale" : [
                0.019963011145591736,
                0.008946413174271584,
                0.06315553933382034
            ],
            "translation" : [
                -23.277965545654297,
                -0.4946683645248413,
                -7.067017078399658
            ]
        },
        {
            "mesh" : 2,
            "name" : "Cube.071",
            "rotation" : [
                -0.42522427439689636,
                0.4199652671813965,
                0.39935991168022156,
                -0.6952158808708191
            ],
            "scale" : [
                0.017876842990517616,
                0.009501520544290543,
                0.06604978442192078
            ],
            "translation" : [
                -22.705535888671875,
                -0.6674480438232422,
                -7.066211700439453
            ]
        },
        {
            "mesh" : 2,
            "name" : "Cube.072",
            "rotation" : [
                -0.38227009773254395,
                0.8031843304634094,
                0.341949462890625,
                -0.3030429780483246
            ],
            "scale" : [
                0.01832595281302929,
                0.009348506107926369,
                0.06574688851833344
            ],
            "translation" : [
                -23.022262573242188,
                0.012806057929992676,
                -7.1156535148620605
            ]
        },
        {
            "mesh" : 2,
            "name" : "Cube.073",
            "rotation" : [
                -0.3775639235973358,
                0.7893009185791016,
                0.3329527974128723,
                -0.3515565097332001
            ],
            "scale" : [
                0.018285056576132774,
                0.009324988350272179,
                0.06603078544139862
            ],
            "translation" : [
                -23.533979415893555,
                -0.3234521448612213,
                -7.12101411819458
            ]
        },
        {
            "mesh" : 2,
            "name" : "Cube.074",
            "rotation" : [
                -0.5559913516044617,
                0.7834054827690125,
                0.0344148725271225,
                -0.2756175398826599
            ],
            "scale" : [
                0.020010871812701225,
                0.010509569197893143,
                0.07347537577152252
            ],
            "translation" : [
                -22.778818130493164,
                -0.370328813791275,
                -6.852310657501221
            ]
        },
        {
            "mesh" : 2,
            "name" : "Cube.075",
            "rotation" : [
                -0.48625901341438293,
                0.7150929570198059,
                -0.03039771318435669,
                -0.5012686252593994
            ],
            "scale" : [
                0.02109510824084282,
                0.010325172916054726,
                0.07137680798768997
            ],
            "translation" : [
                -22.732666015625,
                0.155405193567276,
                -6.942630767822266
            ]
        },
        {
            "mesh" : 2,
            "name" : "Cube.076",
            "rotation" : [
                -0.2972412109375,
                0.9268047213554382,
                0.17793866991996765,
                -0.1449776440858841
            ],
            "scale" : [
                0.021332429721951485,
                0.009890757501125336,
                0.0735173225402832
            ],
            "translation" : [
                -22.918981552124023,
                -0.0016525983810424805,
                -7.183371543884277
            ]
        },
        {
            "mesh" : 2,
            "name" : "Cube.077",
            "rotation" : [
                -0.5708187818527222,
                0.7837212085723877,
                -0.22174647450447083,
                -0.1038048192858696
            ],
            "scale" : [
                0.020238634198904037,
                0.010621760040521622,
                0.07200556993484497
            ],
            "translation" : [
                -23.44295310974121,
                -0.1260291337966919,
                -6.942169666290283
            ]
        },
        {
            "mesh" : 2,
            "name" : "Cube.078",
            "rotation" : [
                -0.4420205056667328,
                0.7618933320045471,
                -0.005976400338113308,
                -0.4733927547931671
            ],
            "scale" : [
                0.016949327662587166,
                0.008192017674446106,
                0.05815356969833374
            ],
            "translation" : [
                -23.326709747314453,
                0.03067106008529663,
                -7.028384685516357
            ]
        },
        {
            "mesh" : 2,
            "name" : "Cube.079",
            "rotation" : [
                0.2823433578014374,
                0.45764124393463135,
                -0.2940680682659149,
                -0.7901713252067566
            ],
            "scale" : [
                0.01676170527935028,
                0.008105870336294174,
                0.05931511148810387
            ],
            "translation" : [
                -23.042192459106445,
                -0.1911504566669464,
                -6.935570240020752
            ]
        },
        {
            "mesh" : 2,
            "name" : "Cube.080",
            "rotation" : [
                0.3769093453884125,
                0.36699727177619934,
                -0.04295019432902336,
                -0.8493571877479553
            ],
            "scale" : [
                0.01771787740290165,
                0.008034168742597103,
                0.05668140947818756
            ],
            "translation" : [
                -22.982921600341797,
                0.2679608166217804,
                -7.001725673675537
            ]
        },
        {
            "mesh" : 2,
            "name" : "Cube.081",
            "rotation" : [
                -0.4979727864265442,
                0.4638387858867645,
                0.3255067467689514,
                -0.6564465165138245
            ],
            "scale" : [
                0.01609073206782341,
                0.008513831533491611,
                0.05860918387770653
            ],
            "translation" : [
                -22.701086044311523,
                0.01276734471321106,
                -7.032406806945801
            ]
        },
        {
            "mesh" : 2,
            "name" : "Cube.082",
            "rotation" : [
                -0.7389488816261292,
                0.3432624638080597,
                -0.3475923538208008,
                0.4640096426010132
            ],
            "scale" : [
                0.01634986512362957,
                0.008485015481710434,
                0.0580211840569973
            ],
            "translation" : [
                -23.316200256347656,
                -0.21371859312057495,
                -7.146212577819824
            ]
        },
        {
            "mesh" : 2,
            "name" : "Cube.083",
            "rotation" : [
                -0.8323934078216553,
                0.4430411159992218,
                -0.296744167804718,
                0.15092603862285614
            ],
            "scale" : [
                0.01636127382516861,
                0.008255373686552048,
                0.05955156683921814
            ],
            "translation" : [
                -23.476573944091797,
                -0.5845977067947388,
                -6.982629776000977
            ]
        }
    ],
    "meshes" : [
        {
            "name" : "Cube.017",
            "primitives" : [
                {
                    "attributes" : {
                        "POSITION" : 0,
                        "NORMAL" : 1,
                        "TEXCOORD_0" : 2
                    },
                    "indices" : 3
                }
            ]
        },
        {
            "name" : "Cube.018",
            "primitives" : [
                {
                    "attributes" : {
                        "POSITION" : 4,
                        "NORMAL" : 5,
                        "TEXCOORD_0" : 6
                    },
                    "indices" : 7
                }
            ]
        },
        {
            "name" : "Cube.019",
            "primitives" : [
                {
                    "attributes" : {
                        "POSITION" : 8,
                        "NORMAL" : 9,
                        "TEXCOORD_0" : 10
                    },
                    "indices" : 11
                }
            ]
        }
    ],
    "accessors" : [
        {
            "bufferView" : 0,
            "componentType" : 5126,
            "count" : 96,
            "max" : [
                0.8395062685012817,
                0.8395062685012817,
                0.8395062685012817
            ],
            "min" : [
                -0.8395062685012817,
                -5.985824108123779,
                -0.8395062685012817
            ],
            "type" : "VEC3"
        },
        {
            "bufferView" : 1,
            "componentType" : 5126,
            "count" : 96,
            "type" : "VEC3"
        },
        {
            "bufferView" : 2,
            "componentType" : 5126,
            "count" : 96,
            "type" : "VEC2"
        },
        {
            "bufferView" : 3,
            "componentType" : 5123,
            "count" : 144,
            "type" : "SCALAR"
        },
        {
            "bufferView" : 4,
            "componentType" : 5126,
            "count" : 192,
            "max" : [
                4.316499710083008,
                5.046298027038574,
                0.8395062685012817
            ],
            "min" : [
                7.152557373046875e-07,
                -0.38642263412475586,
                -0.8395062685012817
            ],
            "type" : "VEC3"
        },
        {
            "bufferView" : 5,
            "componentType" : 5126,
            "count" : 192,
            "type" : "VEC3"
        },
        {
            "bufferView" : 6,
            "componentType" : 5126,
            "count" : 192,
            "type" : "VEC2"
        },
        {
            "bufferView" : 7,
            "componentType" : 5123,
            "count" : 288,
            "type" : "SCALAR"
        },
        {
            "bufferView" : 8,
            "componentType" : 5126,
            "count" : 24,
            "max" : [
                1,
                1,
                1
            ],
            "min" : [
                -1,
                -1,
                -1
            ],
            "type" : "VEC3"
        },
        {
            "bufferView" : 9,
            "componentType" : 5126,
            "count" : 24,
            "type" : "VEC3"
        },
        {
            "bufferView" : 10,
            "componentType" : 5126,
            "count" : 24,
            "type" : "VEC2"
        },
        {
            "bufferView" : 11,
            "componentType" : 5123,
            "count" : 36,
            "type" : "SCALAR"
        }
    ],
    "bufferViews" : [
        {
            "buffer" : 0,
            "byteLength" : 1152,
            "byteOffset" : 0
        },
        {
            "buffer" : 0,
            "byteLength" : 1152,
            "byteOffset" : 1152
        },
        {
            "buffer" : 0,
            "byteLength" : 768,
            "byteOffset" : 2304
        },
        {
            "buffer" : 0,
            "byteLength" : 288,
            "byteOffset" : 3072
        },
        {
            "buffer" : 0,
            "byteLength" : 2304,
            "byteOffset" : 3360
        },
        {
            "buffer" : 0,
            "byteLength" : 2304,
            "byteOffset" : 5664
        },
        {
            "buffer" : 0,
            "byteLength" : 1536,
            "byteOffset" : 7968
        },
        {
            "buffer" : 0,
            "byteLength" : 576,
            "byteOffset" : 9504
        },
        {
            "buffer" : 0,
            "byteLength" : 288,
            "byteOffset" : 10080
        },
        {
            "buffer" : 0,
            "byteLength" : 288,
            "byteOffset" : 10368
        },
        {
            "buffer" : 0,
            "byteLength" : 192,
            "byteOffset" : 10656
        },
        {
            "buffer" : 0,
            "byteLength" : 72,
            "byteOffset" : 10848
        }
    ],
    "buffers" : [
        {
            "byteLength" : 10920,
            "uri" : "data:application/octet-stream;base64,"
        }
    ]
}
