{
    "asset" : {
        "generator" : "Khronos glTF Blender I/O v1.4.40",
        "version" : "2.0"
    },
    "scene" : 0,
    "scenes" : [
        {
            "extras" : {
                "skinify" : {
                    "connect_mesh" : 0,
                    "connect_parents" : 0,
                    "generate_all" : 0,
                    "thickness" : 0.800000011920929,
                    "finger_thickness" : 0.25,
                    "apply_mod" : 1,
                    "parent_armature" : 1,
                    "sub_level" : 1
                },
                "glTF2ExportSettings" : {
                    "export_animations" : 0,
                    "export_apply" : 1,
                    "export_cameras" : 1,
                    "export_colors" : 0,
                    "export_extras" : 1,
                    "export_format" : "GLTF_EMBEDDED",
                    "export_materials" : "NONE",
                    "export_morph" : 0,
                    "export_skins" : 0,
                    "use_selection" : 1
                }
            },
            "name" : "Scene",
            "nodes" : [
                0,
                1,
                2,
                3,
                4,
                5,
                6,
                7,
                8,
                9,
                10,
                11,
                12,
                13,
                14,
                15,
                16,
                17,
                18,
                19,
                20,
                21,
                22,
                23,
                24,
                25,
                26
            ]
        }
    ],
    "nodes" : [
        {
            "mesh" : 0,
            "name" : "Cube.128",
            "rotation" : [
                0,
                -0.9985993504524231,
                0,
                -0.052909258753061295
            ],
            "scale" : [
                0.22426718473434448,
                0.28316837549209595,
                0.22426718473434448
            ],
            "translation" : [
                19.437294006347656,
                0.0872708261013031,
                6.947798728942871
            ]
        },
        {
            "mesh" : 1,
            "name" : "Cube.129",
            "rotation" : [
                0,
                -0.9985993504524231,
                0,
                -0.052909258753061295
            ],
            "scale" : [
                0.11120989918708801,
                0.1404179185628891,
                0.11120989918708801
            ],
            "translation" : [
                19.379581451416016,
                -1.0426582098007202,
                6.933186054229736
            ]
        },
        {
            "mesh" : 2,
            "name" : "Cube.130",
            "rotation" : [
                0.37059786915779114,
                -0.7959501147270203,
                0.02656170167028904,
                -0.47792792320251465
            ],
            "scale" : [
                0.026155052706599236,
                0.012249650433659554,
                0.08989118784666061
            ],
            "translation" : [
                19.512914657592773,
                -0.21351024508476257,
                6.791075229644775
            ]
        },
        {
            "mesh" : 2,
            "name" : "Cube.131",
            "rotation" : [
                -0.8550917506217957,
                -0.4604651927947998,
                0.12933982908725739,
                0.20015327632427216
            ],
            "scale" : [
                0.02492963708937168,
                0.012738991528749466,
                0.09044541418552399
            ],
            "translation" : [
                19.38217544555664,
                -0.44556498527526855,
                6.776710510253906
            ]
        },
        {
            "mesh" : 2,
            "name" : "Cube.132",
            "rotation" : [
                -0.9137808680534363,
                -0.35711196064949036,
                -0.014228238724172115,
                0.19306258857250214
            ],
            "scale" : [
                0.013543643057346344,
                0.006448546424508095,
                0.046601977199316025
            ],
            "translation" : [
                18.962717056274414,
                -0.5477779507637024,
                6.809870719909668
            ]
        },
        {
            "mesh" : 2,
            "name" : "Cube.133",
            "rotation" : [
                -0.7472113966941833,
                -0.09157276898622513,
                0.5550848245620728,
                -0.35379427671432495
            ],
            "scale" : [
                0.014207262545824051,
                0.006366977468132973,
                0.04494648799300194
            ],
            "translation" : [
                19.099111557006836,
                -0.7764269113540649,
                6.894043445587158
            ]
        },
        {
            "mesh" : 2,
            "name" : "Cube.134",
            "rotation" : [
                -0.42522427439689636,
                0.4199652671813965,
                0.39935991168022156,
                -0.6952158808708191
            ],
            "scale" : [
                0.017876842990517616,
                0.009501520544290543,
                0.06604978442192078
            ],
            "translation" : [
                19.609888076782227,
                -0.6674480438232422,
                6.892996311187744
            ]
        },
        {
            "mesh" : 2,
            "name" : "Cube.135",
            "rotation" : [
                -0.38227009773254395,
                0.8031843304634094,
                0.341949462890625,
                -0.3030429780483246
            ],
            "scale" : [
                0.01832595281302929,
                0.009348506107926369,
                0.06574688851833344
            ],
            "translation" : [
                19.293161392211914,
                0.012806057929992676,
                6.843554496765137
            ]
        },
        {
            "mesh" : 2,
            "name" : "Cube.136",
            "rotation" : [
                -0.3775639235973358,
                0.7893009185791016,
                0.3329527974128723,
                -0.3515565097332001
            ],
            "scale" : [
                0.013013096526265144,
                0.006636401172727346,
                0.04699274152517319
            ],
            "translation" : [
                18.916912078857422,
                -0.6545758247375488,
                6.855615139007568
            ]
        },
        {
            "mesh" : 2,
            "name" : "Cube.137",
            "rotation" : [
                -0.5559913516044617,
                0.7834054827690125,
                0.0344148725271225,
                -0.2756175398826599
            ],
            "scale" : [
                0.020010871812701225,
                0.010509569197893143,
                0.07347537577152252
            ],
            "translation" : [
                19.536605834960938,
                -0.370328813791275,
                7.106897354125977
            ]
        },
        {
            "mesh" : 2,
            "name" : "Cube.138",
            "rotation" : [
                -0.48625901341438293,
                0.7150929570198059,
                -0.03039771318435669,
                -0.5012686252593994
            ],
            "scale" : [
                0.02109510824084282,
                0.010325172916054726,
                0.07137680798768997
            ],
            "translation" : [
                19.5827579498291,
                0.155405193567276,
                7.016577243804932
            ]
        },
        {
            "mesh" : 2,
            "name" : "Cube.139",
            "rotation" : [
                -0.2972412109375,
                0.9268047213554382,
                0.17793866991996765,
                -0.1449776440858841
            ],
            "scale" : [
                0.021332429721951485,
                0.009890757501125336,
                0.0735173225402832
            ],
            "translation" : [
                19.396442413330078,
                -0.0016525983810424805,
                6.77583646774292
            ]
        },
        {
            "mesh" : 2,
            "name" : "Cube.140",
            "rotation" : [
                -0.5708187818527222,
                0.7837212085723877,
                -0.22174647450447083,
                -0.1038048192858696
            ],
            "scale" : [
                0.014403417706489563,
                0.007559287361800671,
                0.05124488100409508
            ],
            "translation" : [
                18.981693267822266,
                -0.5140740275382996,
                6.9828948974609375
            ]
        },
        {
            "mesh" : 2,
            "name" : "Cube.141",
            "rotation" : [
                -0.4420205056667328,
                0.7618933320045471,
                -0.005976400338113308,
                -0.4733927547931671
            ],
            "scale" : [
                0.01206248626112938,
                0.005830089561641216,
                0.041386693716049194
            ],
            "translation" : [
                19.064420700073242,
                -0.4025537371635437,
                6.921537399291992
            ]
        },
        {
            "mesh" : 2,
            "name" : "Cube.142",
            "rotation" : [
                0.2823433578014374,
                0.45764124393463135,
                -0.2940680682659149,
                -0.7901713252067566
            ],
            "scale" : [
                0.01676170527935028,
                0.008105870336294174,
                0.05931511148810387
            ],
            "translation" : [
                19.273231506347656,
                -0.1911504566669464,
                7.023637771606445
            ]
        },
        {
            "mesh" : 2,
            "name" : "Cube.143",
            "rotation" : [
                0.3769093453884125,
                0.36699727177619934,
                -0.04295019432902336,
                -0.8493571877479553
            ],
            "scale" : [
                0.01771787740290165,
                0.008034168742597103,
                0.05668140947818756
            ],
            "translation" : [
                19.332502365112305,
                0.2679608166217804,
                6.95748233795166
            ]
        },
        {
            "mesh" : 2,
            "name" : "Cube.144",
            "rotation" : [
                -0.4979727864265442,
                0.4638387858867645,
                0.3255067467689514,
                -0.6564465165138245
            ],
            "scale" : [
                0.01609073206782341,
                0.008513831533491611,
                0.05860918387770653
            ],
            "translation" : [
                19.614337921142578,
                0.01276734471321106,
                6.9268012046813965
            ]
        },
        {
            "mesh" : 2,
            "name" : "Cube.145",
            "rotation" : [
                -0.7389488816261292,
                0.3432624638080597,
                -0.3475923538208008,
                0.4640096426010132
            ],
            "scale" : [
                0.011635861359536648,
                0.006038610823452473,
                0.041292477399110794
            ],
            "translation" : [
                19.071901321411133,
                -0.5764807462692261,
                6.837681770324707
            ]
        },
        {
            "mesh" : 2,
            "name" : "Cube.146",
            "rotation" : [
                -0.8323934078216553,
                0.4430411159992218,
                -0.296744167804718,
                0.15092603862285614
            ],
            "scale" : [
                0.011643979698419571,
                0.005875179078429937,
                0.04238161817193031
            ],
            "translation" : [
                18.957765579223633,
                -0.8404277563095093,
                6.954100131988525
            ]
        },
        {
            "mesh" : 3,
            "name" : "Cube.147",
            "rotation" : [
                0,
                -0.33316895365715027,
                0,
                0.9428671598434448
            ],
            "scale" : [
                0.11120989918708801,
                0.1404179185628891,
                0.11120989918708801
            ],
            "translation" : [
                19.493610382080078,
                -0.938231885433197,
                6.7975029945373535
            ]
        },
        {
            "mesh" : 4,
            "name" : "Cube.148",
            "rotation" : [
                -0.27207913994789124,
                0.08418378233909607,
                0.8724510073661804,
                0.39713379740715027
            ],
            "scale" : [
                0.013543643057346344,
                0.006448546424508095,
                0.046601977199316025
            ],
            "translation" : [
                19.776885986328125,
                -0.4433516263961792,
                7.127256870269775
            ]
        },
        {
            "mesh" : 4,
            "name" : "Cube.149",
            "rotation" : [
                0.32109981775283813,
                -0.36524859070777893,
                0.8736926913261414,
                -0.012224400416016579
            ],
            "scale" : [
                0.014207262545824051,
                0.006366977468132973,
                0.04494648799300194
            ],
            "translation" : [
                19.707977294921875,
                -0.6720005869865417,
                6.982550144195557
            ]
        },
        {
            "mesh" : 4,
            "name" : "Cube.150",
            "rotation" : [
                0.21257860958576202,
                -0.11397699266672134,
                0.45631393790245056,
                -0.856502890586853
            ],
            "scale" : [
                0.013013096526265144,
                0.006636401172727346,
                0.04699274152517319
            ],
            "translation" : [
                19.840181350708008,
                -0.5501495003700256,
                7.113681316375732
            ]
        },
        {
            "mesh" : 4,
            "name" : "Cube.151",
            "rotation" : [
                -0.3741301894187927,
                0.12208199501037598,
                0.48480120301246643,
                -0.781082808971405
            ],
            "scale" : [
                0.014403417706489563,
                0.007559287361800671,
                0.05124488100409508
            ],
            "translation" : [
                19.854816436767578,
                -0.40964770317077637,
                6.971616268157959
            ]
        },
        {
            "mesh" : 4,
            "name" : "Cube.152",
            "rotation" : [
                -0.1307428777217865,
                -0.23859047889709473,
                0.42228445410728455,
                -0.8646714687347412
            ],
            "scale" : [
                0.01206248626112938,
                0.005830089561641216,
                0.041386693716049194
            ],
            "translation" : [
                19.75203514099121,
                -0.2981274127960205,
                6.978275299072266
            ]
        },
        {
            "mesh" : 4,
            "name" : "Cube.153",
            "rotation" : [
                -0.5423882007598877,
                0.5421462059020996,
                0.610476016998291,
                -0.19801917672157288
            ],
            "scale" : [
                0.011635861359536648,
                0.006038610823452473,
                0.041292477399110794
            ],
            "translation" : [
                19.70025634765625,
                -0.4720544219017029,
                7.044658184051514
            ]
        },
        {
            "mesh" : 4,
            "name" : "Cube.154",
            "rotation" : [
                -0.5200434923171997,
                0.27006348967552185,
                0.714486300945282,
                -0.38226932287216187
            ],
            "scale" : [
                0.011643979698419571,
                0.005875179078429937,
                0.04238161817193031
            ],
            "translation" : [
                19.859294891357422,
                -0.7360014319419861,
                7.008786201477051
            ]
        }
    ],
    "meshes" : [
        {
            "name" : "Cube.023",
            "primitives" : [
                {
                    "attributes" : {
                        "POSITION" : 0,
                        "NORMAL" : 1,
                        "TEXCOORD_0" : 2
                    },
                    "indices" : 3
                }
            ]
        },
        {
            "name" : "Cube.024",
            "primitives" : [
                {
                    "attributes" : {
                        "POSITION" : 4,
                        "NORMAL" : 5,
                        "TEXCOORD_0" : 6
                    },
                    "indices" : 7
                }
            ]
        },
        {
            "name" : "Cube.025",
            "primitives" : [
                {
                    "attributes" : {
                        "POSITION" : 8,
                        "NORMAL" : 9,
                        "TEXCOORD_0" : 10
                    },
                    "indices" : 11
                }
            ]
        },
        {
            "name" : "Cube.026",
            "primitives" : [
                {
                    "attributes" : {
                        "POSITION" : 12,
                        "NORMAL" : 13,
                        "TEXCOORD_0" : 14
                    },
                    "indices" : 7
                }
            ]
        },
        {
            "name" : "Cube.027",
            "primitives" : [
                {
                    "attributes" : {
                        "POSITION" : 15,
                        "NORMAL" : 16,
                        "TEXCOORD_0" : 17
                    },
                    "indices" : 11
                }
            ]
        }
    ],
    "accessors" : [
        {
            "bufferView" : 0,
            "componentType" : 5126,
            "count" : 96,
            "max" : [
                0.8395062685012817,
                0.8395062685012817,
                0.8395062685012817
            ],
            "min" : [
                -0.8395062685012817,
                -5.985824108123779,
                -0.8395062685012817
            ],
            "type" : "VEC3"
        },
        {
            "bufferView" : 1,
            "componentType" : 5126,
            "count" : 96,
            "type" : "VEC3"
        },
        {
            "bufferView" : 2,
            "componentType" : 5126,
            "count" : 96,
            "type" : "VEC2"
        },
        {
            "bufferView" : 3,
            "componentType" : 5123,
            "count" : 144,
            "type" : "SCALAR"
        },
        {
            "bufferView" : 4,
            "componentType" : 5126,
            "count" : 192,
            "max" : [
                4.316499710083008,
                5.046298027038574,
                0.8395062685012817
            ],
            "min" : [
                7.152557373046875e-07,
                -0.38642263412475586,
                -0.8395062685012817
            ],
            "type" : "VEC3"
        },
        {
            "bufferView" : 5,
            "componentType" : 5126,
            "count" : 192,
            "type" : "VEC3"
        },
        {
            "bufferView" : 6,
            "componentType" : 5126,
            "count" : 192,
            "type" : "VEC2"
        },
        {
            "bufferView" : 7,
            "componentType" : 5123,
            "count" : 288,
            "type" : "SCALAR"
        },
        {
            "bufferView" : 8,
            "componentType" : 5126,
            "count" : 24,
            "max" : [
                1,
                1,
                1
            ],
            "min" : [
                -1,
                -1,
                -1
            ],
            "type" : "VEC3"
        },
        {
            "bufferView" : 9,
            "componentType" : 5126,
            "count" : 24,
            "type" : "VEC3"
        },
        {
            "bufferView" : 10,
            "componentType" : 5126,
            "count" : 24,
            "type" : "VEC2"
        },
        {
            "bufferView" : 11,
            "componentType" : 5123,
            "count" : 36,
            "type" : "SCALAR"
        },
        {
            "bufferView" : 12,
            "componentType" : 5126,
            "count" : 192,
            "max" : [
                4.316499710083008,
                5.046298027038574,
                0.8395062685012817
            ],
            "min" : [
                7.152557373046875e-07,
                -0.38642263412475586,
                -0.8395062685012817
            ],
            "type" : "VEC3"
        },
        {
            "bufferView" : 13,
            "componentType" : 5126,
            "count" : 192,
            "type" : "VEC3"
        },
        {
            "bufferView" : 14,
            "componentType" : 5126,
            "count" : 192,
            "type" : "VEC2"
        },
        {
            "bufferView" : 15,
            "componentType" : 5126,
            "count" : 24,
            "max" : [
                1,
                1,
                1
            ],
            "min" : [
                -1,
                -1,
                -1
            ],
            "type" : "VEC3"
        },
        {
            "bufferView" : 16,
            "componentType" : 5126,
            "count" : 24,
            "type" : "VEC3"
        },
        {
            "bufferView" : 17,
            "componentType" : 5126,
            "count" : 24,
            "type" : "VEC2"
        }
    ],
    "bufferViews" : [
        {
            "buffer" : 0,
            "byteLength" : 1152,
            "byteOffset" : 0
        },
        {
            "buffer" : 0,
            "byteLength" : 1152,
            "byteOffset" : 1152
        },
        {
            "buffer" : 0,
            "byteLength" : 768,
            "byteOffset" : 2304
        },
        {
            "buffer" : 0,
            "byteLength" : 288,
            "byteOffset" : 3072
        },
        {
            "buffer" : 0,
            "byteLength" : 2304,
            "byteOffset" : 3360
        },
        {
            "buffer" : 0,
            "byteLength" : 2304,
            "byteOffset" : 5664
        },
        {
            "buffer" : 0,
            "byteLength" : 1536,
            "byteOffset" : 7968
        },
        {
            "buffer" : 0,
            "byteLength" : 576,
            "byteOffset" : 9504
        },
        {
            "buffer" : 0,
            "byteLength" : 288,
            "byteOffset" : 10080
        },
        {
            "buffer" : 0,
            "byteLength" : 288,
            "byteOffset" : 10368
        },
        {
            "buffer" : 0,
            "byteLength" : 192,
            "byteOffset" : 10656
        },
        {
            "buffer" : 0,
            "byteLength" : 72,
            "byteOffset" : 10848
        },
        {
            "buffer" : 0,
            "byteLength" : 2304,
            "byteOffset" : 10920
        },
        {
            "buffer" : 0,
            "byteLength" : 2304,
            "byteOffset" : 13224
        },
        {
            "buffer" : 0,
            "byteLength" : 1536,
            "byteOffset" : 15528
        },
        {
            "buffer" : 0,
            "byteLength" : 288,
            "byteOffset" : 17064
        },
        {
            "buffer" : 0,
            "byteLength" : 288,
            "byteOffset" : 17352
        },
        {
            "buffer" : 0,
            "byteLength" : 192,
            "byteOffset" : 17640
        }
    ],
    "buffers" : [
        {
            "byteLength" : 17832,
            "uri" : "data:application/octet-stream;base64,"
        }
    ]
}
