{
    "asset" : {
        "generator" : "Khronos glTF Blender I/O v1.4.40",
        "version" : "2.0"
    },
    "scene" : 0,
    "scenes" : [
        {
            "name" : "Scene",
            "nodes" : [
                0,
                1,
                4,
                7,
                10,
                13,
                16,
                19,
                22,
                23
            ]
        }
    ],
    "nodes" : [
        {
            "mesh" : 0,
            "name" : "Cube.001",
            "rotation" : [
                0,
                -0.4357488751411438,
                0,
                0.9000684022903442
            ],
            "scale" : [
                -41.0147590637207,
                -11.026002883911133,
                -23.6204833984375
            ],
            "translation" : [
                223.1107177734375,
                -14.016894340515137,
                -211.75601196289062
            ]
        },
        {
            "mesh" : 1,
            "name" : "Cube.003",
            "rotation" : [
                0,
                -0.4357488751411438,
                0,
                0.9000684022903442
            ],
            "scale" : [
                -41.31148147583008,
                -11.1057710647583,
                -23.791364669799805
            ],
            "translation" : [
                226.633544921875,
                -14.016894340515137,
                -218.1047821044922
            ]
        },
        {
            "mesh" : 2,
            "name" : "Cube.012",
            "rotation" : [
                -0.7071067094802856,
                0,
                0,
                0.7071068286895752
            ],
            "scale" : [
                0.28445810079574585,
                0.11293094605207443,
                0.28445810079574585
            ],
            "translation" : [
                0.00334930419921875,
                0.10148918628692627,
                2.8458996439439943e-06
            ]
        },
        {
            "mesh" : 3,
            "name" : "Cube.013",
            "rotation" : [
                -0.7071067094802856,
                0,
                0,
                0.7071068286895752
            ],
            "scale" : [
                0.28445810079574585,
                0.11293094605207443,
                0.28445810079574585
            ],
            "translation" : [
                -0.035858154296875,
                -0.1647796630859375,
                2.837918827935937e-06
            ]
        },
        {
            "children" : [
                2,
                3
            ],
            "name" : "group",
            "rotation" : [
                0.7071067690849304,
                0,
                0,
                0.7071068286895752
            ],
            "scale" : [
                9.056253433227539,
                9.056253433227539,
                22.811500549316406
            ],
            "translation" : [
                216.42913818359375,
                0,
                13.959765434265137
            ]
        },
        {
            "mesh" : 2,
            "name" : "Cube.016",
            "rotation" : [
                -0.7071067094802856,
                0,
                0,
                0.7071068286895752
            ],
            "scale" : [
                0.28445810079574585,
                0.11293095350265503,
                0.28445810079574585
            ],
            "translation" : [
                0.0033512115478515625,
                0.10148811340332031,
                2.8445742827898357e-06
            ]
        },
        {
            "mesh" : 3,
            "name" : "Cube.017",
            "rotation" : [
                -0.7071067094802856,
                0,
                0,
                0.7071068286895752
            ],
            "scale" : [
                0.28445810079574585,
                0.11293095350265503,
                0.28445810079574585
            ],
            "translation" : [
                -0.03585624694824219,
                -0.1647815704345703,
                2.8358786039461847e-06
            ]
        },
        {
            "children" : [
                5,
                6
            ],
            "name" : "group.001",
            "rotation" : [
                0.6696504354476929,
                -0.22708651423454285,
                0.22708651423454285,
                0.6696504950523376
            ],
            "scale" : [
                7.42159366607666,
                7.42159366607666,
                18.69400978088379
            ],
            "translation" : [
                217.9707489013672,
                0.2792011499404907,
                -6.617928504943848
            ]
        },
        {
            "mesh" : 2,
            "name" : "Cube.014",
            "rotation" : [
                -0.7071067094802856,
                0,
                0,
                0.7071068286895752
            ],
            "scale" : [
                0.28445810079574585,
                0.11293093860149384,
                0.28445810079574585
            ],
            "translation" : [
                0.00334930419921875,
                0.10149002075195312,
                2.8365693651721813e-06
            ]
        },
        {
            "mesh" : 3,
            "name" : "Cube.015",
            "rotation" : [
                -0.7071067094802856,
                0,
                0,
                0.7071068286895752
            ],
            "scale" : [
                0.28445810079574585,
                0.11293093860149384,
                0.28445810079574585
            ],
            "translation" : [
                -0.035859107971191406,
                -0.1647777557373047,
                2.842341473296983e-06
            ]
        },
        {
            "children" : [
                8,
                9
            ],
            "name" : "group.002",
            "rotation" : [
                0.4314112663269043,
                0.5602538585662842,
                -0.560253918170929,
                0.4314112961292267
            ],
            "scale" : [
                10.78683090209961,
                10.78683090209961,
                27.170595169067383
            ],
            "translation" : [
                -225.2120819091797,
                -8.312925338745117,
                -80.8382797241211
            ]
        },
        {
            "mesh" : 2,
            "name" : "Cube.006",
            "rotation" : [
                -0.7071067094802856,
                0,
                0,
                0.7071068286895752
            ],
            "scale" : [
                0.28445810079574585,
                0.11293094605207443,
                0.28445810079574585
            ],
            "translation" : [
                0.0033512115478515625,
                0.10148906707763672,
                2.841710511347628e-06
            ]
        },
        {
            "mesh" : 3,
            "name" : "Cube.007",
            "rotation" : [
                -0.7071067094802856,
                0,
                0,
                0.7071068286895752
            ],
            "scale" : [
                0.28445810079574585,
                0.11293094605207443,
                0.28445810079574585
            ],
            "translation" : [
                -0.03585624694824219,
                -0.1647796630859375,
                2.8337296953395708e-06
            ]
        },
        {
            "children" : [
                11,
                12
            ],
            "name" : "group.003",
            "rotation" : [
                0.7071067690849304,
                0,
                0,
                0.7071068286895752
            ],
            "scale" : [
                17.7388916015625,
                17.7388916015625,
                44.681915283203125
            ],
            "translation" : [
                -174.23809814453125,
                -2.991147994995117,
                -132.28582763671875
            ]
        },
        {
            "mesh" : 4,
            "name" : "Cube.010",
            "rotation" : [
                0,
                0.026443660259246826,
                0,
                0.9996503591537476
            ],
            "scale" : [
                1.0453981161117554,
                0.12189420312643051,
                0.7189851403236389
            ],
            "translation" : [
                -0.03158998489379883,
                -0.9535059928894043,
                0.0651388168334961
            ]
        },
        {
            "mesh" : 5,
            "name" : "Cube.011",
            "rotation" : [
                0,
                0.026443693786859512,
                0,
                0.9996503591537476
            ],
            "scale" : [
                1.0207771062850952,
                0.11902333796024323,
                0.7020513415336609
            ],
            "translation" : [
                -0.08346414566040039,
                -0.9535059928894043,
                -0.10746097564697266
            ]
        },
        {
            "children" : [
                14,
                15
            ],
            "name" : "group3",
            "rotation" : [
                0,
                -0.3826834261417389,
                0,
                0.9238795638084412
            ],
            "scale" : [
                24.8568172454834,
                13.491802215576172,
                11.531428337097168
            ],
            "translation" : [
                -257.23895263671875,
                8.38484001159668,
                2.190868616104126
            ]
        },
        {
            "mesh" : 4,
            "name" : "Cube.002",
            "rotation" : [
                0,
                0.026443686336278915,
                0,
                0.9996503591537476
            ],
            "scale" : [
                1.045398235321045,
                0.1218942180275917,
                0.7189851403236389
            ],
            "translation" : [
                -0.031590163707733154,
                -0.9535062313079834,
                0.0651397705078125
            ]
        },
        {
            "mesh" : 5,
            "name" : "Cube.018",
            "rotation" : [
                0,
                0.026443663984537125,
                0,
                0.9996503591537476
            ],
            "scale" : [
                1.0207771062850952,
                0.11902336031198502,
                0.7020514607429504
            ],
            "translation" : [
                -0.08346384763717651,
                -0.9535062313079834,
                -0.10746002197265625
            ]
        },
        {
            "children" : [
                17,
                18
            ],
            "name" : "group3.001",
            "rotation" : [
                0,
                -0.40798357129096985,
                0,
                0.9129892587661743
            ],
            "scale" : [
                15.678208351135254,
                14.801650047302246,
                11.531428337097168
            ],
            "translation" : [
                -100.21947479248047,
                14.400591850280762,
                103.86295318603516
            ]
        },
        {
            "mesh" : 4,
            "name" : "Cube.004",
            "rotation" : [
                0,
                0.026443714275956154,
                0,
                0.9996503591537476
            ],
            "scale" : [
                1.0453983545303345,
                0.1218942254781723,
                0.7189851999282837
            ],
            "translation" : [
                -0.031590938568115234,
                -0.9535062313079834,
                0.06514167785644531
            ]
        },
        {
            "mesh" : 5,
            "name" : "Cube.005",
            "rotation" : [
                0,
                0.026443660259246826,
                0,
                0.9996503591537476
            ],
            "scale" : [
                1.0207772254943848,
                0.11902335286140442,
                0.7020514607429504
            ],
            "translation" : [
                -0.08346438407897949,
                -0.9535062313079834,
                -0.10745811462402344
            ]
        },
        {
            "children" : [
                20,
                21
            ],
            "name" : "group3.002",
            "rotation" : [
                0,
                -0.9344014525413513,
                0,
                -0.3562217354774475
            ],
            "scale" : [
                47.25737380981445,
                25.650394439697266,
                21.923362731933594
            ],
            "translation" : [
                120.4005355834961,
                16.304624557495117,
                -298.146240234375
            ]
        },
        {
            "mesh" : 6,
            "name" : "Cube",
            "rotation" : [
                0,
                0.18388871848583221,
                0,
                0.982947051525116
            ],
            "scale" : [
                14.207597732543945,
                9.666210174560547,
                12.510254859924316
            ],
            "translation" : [
                113.2260513305664,
                3.1461896896362305,
                112.56008911132812
            ]
        }
    ],
    "meshes" : [
        {
            "name" : "Cube.001",
            "primitives" : [
                {
                    "attributes" : {
                        "POSITION" : 0,
                        "TEXCOORD_0" : 1
                    },
                    "indices" : 2
                }
            ]
        },
        {
            "name" : "Cube.003",
            "primitives" : [
                {
                    "attributes" : {
                        "POSITION" : 3,
                        "TEXCOORD_0" : 4
                    },
                    "indices" : 2
                }
            ]
        },
        {
            "name" : "Cube.012",
            "primitives" : [
                {
                    "attributes" : {
                        "POSITION" : 5,
                        "TEXCOORD_0" : 6
                    },
                    "indices" : 7
                }
            ]
        },
        {
            "name" : "Cube.013",
            "primitives" : [
                {
                    "attributes" : {
                        "POSITION" : 8,
                        "TEXCOORD_0" : 9
                    },
                    "indices" : 7
                }
            ]
        },
        {
            "name" : "Cube.010",
            "primitives" : [
                {
                    "attributes" : {
                        "POSITION" : 10,
                        "TEXCOORD_0" : 11
                    },
                    "indices" : 12
                }
            ]
        },
        {
            "name" : "Cube.011",
            "primitives" : [
                {
                    "attributes" : {
                        "POSITION" : 13,
                        "TEXCOORD_0" : 14
                    },
                    "indices" : 12
                }
            ]
        },
        {
            "name" : "Cube",
            "primitives" : [
                {
                    "attributes" : {
                        "POSITION" : 15,
                        "TEXCOORD_0" : 16
                    },
                    "indices" : 17
                }
            ]
        }
    ],
    "accessors" : [
        {
            "bufferView" : 0,
            "componentType" : 5126,
            "count" : 531,
            "max" : [
                1.0071020126342773,
                0.9166666865348816,
                0.9166666865348816
            ],
            "min" : [
                -0.9244340658187866,
                -7.313183307647705,
                -0.9166666865348816
            ],
            "type" : "VEC3"
        },
        {
            "bufferView" : 1,
            "componentType" : 5126,
            "count" : 531,
            "type" : "VEC2"
        },
        {
            "bufferView" : 2,
            "componentType" : 5123,
            "count" : 2976,
            "type" : "SCALAR"
        },
        {
            "bufferView" : 3,
            "componentType" : 5126,
            "count" : 531,
            "max" : [
                1.0071020126342773,
                0.9166666865348816,
                0.9166666865348816
            ],
            "min" : [
                -0.9244340658187866,
                -7.313183307647705,
                -0.9166666865348816
            ],
            "type" : "VEC3"
        },
        {
            "bufferView" : 4,
            "componentType" : 5126,
            "count" : 531,
            "type" : "VEC2"
        },
        {
            "bufferView" : 5,
            "componentType" : 5126,
            "count" : 265,
            "max" : [
                2.234402656555176,
                10.812169075012207,
                2.283735513687134
            ],
            "min" : [
                -2.0967397689819336,
                -1.288577914237976,
                -2.2104756832122803
            ],
            "type" : "VEC3"
        },
        {
            "bufferView" : 6,
            "componentType" : 5126,
            "count" : 265,
            "type" : "VEC2"
        },
        {
            "bufferView" : 7,
            "componentType" : 5123,
            "count" : 1500,
            "type" : "SCALAR"
        },
        {
            "bufferView" : 8,
            "componentType" : 5126,
            "count" : 265,
            "max" : [
                2.234402656555176,
                10.812169075012207,
                2.283735513687134
            ],
            "min" : [
                -2.0967397689819336,
                -1.288577914237976,
                -2.2104756832122803
            ],
            "type" : "VEC3"
        },
        {
            "bufferView" : 9,
            "componentType" : 5126,
            "count" : 265,
            "type" : "VEC2"
        },
        {
            "bufferView" : 10,
            "componentType" : 5126,
            "count" : 1473,
            "max" : [
                0.958333432674408,
                17.3156795501709,
                0.958333432674408
            ],
            "min" : [
                -0.958333432674408,
                -1,
                -1.1087042093276978
            ],
            "type" : "VEC3"
        },
        {
            "bufferView" : 11,
            "componentType" : 5126,
            "count" : 1473,
            "type" : "VEC2"
        },
        {
            "bufferView" : 12,
            "componentType" : 5123,
            "count" : 8568,
            "type" : "SCALAR"
        },
        {
            "bufferView" : 13,
            "componentType" : 5126,
            "count" : 1473,
            "max" : [
                0.958333432674408,
                17.3156795501709,
                0.958333432674408
            ],
            "min" : [
                -0.958333432674408,
                -1,
                -1.1087042093276978
            ],
            "type" : "VEC3"
        },
        {
            "bufferView" : 14,
            "componentType" : 5126,
            "count" : 1473,
            "type" : "VEC2"
        },
        {
            "bufferView" : 15,
            "componentType" : 5126,
            "count" : 849,
            "max" : [
                1.559946894645691,
                6.573859214782715,
                1.4612510204315186
            ],
            "min" : [
                -7.5983381271362305,
                -1.8830868005752563,
                -1.9778293371200562
            ],
            "type" : "VEC3"
        },
        {
            "bufferView" : 16,
            "componentType" : 5126,
            "count" : 849,
            "type" : "VEC2"
        },
        {
            "bufferView" : 17,
            "componentType" : 5123,
            "count" : 4704,
            "type" : "SCALAR"
        }
    ],
    "bufferViews" : [
        {
            "buffer" : 0,
            "byteLength" : 6372,
            "byteOffset" : 0
        },
        {
            "buffer" : 0,
            "byteLength" : 4248,
            "byteOffset" : 6372
        },
        {
            "buffer" : 0,
            "byteLength" : 5952,
            "byteOffset" : 10620
        },
        {
            "buffer" : 0,
            "byteLength" : 6372,
            "byteOffset" : 16572
        },
        {
            "buffer" : 0,
            "byteLength" : 4248,
            "byteOffset" : 22944
        },
        {
            "buffer" : 0,
            "byteLength" : 3180,
            "byteOffset" : 27192
        },
        {
            "buffer" : 0,
            "byteLength" : 2120,
            "byteOffset" : 30372
        },
        {
            "buffer" : 0,
            "byteLength" : 3000,
            "byteOffset" : 32492
        },
        {
            "buffer" : 0,
            "byteLength" : 3180,
            "byteOffset" : 35492
        },
        {
            "buffer" : 0,
            "byteLength" : 2120,
            "byteOffset" : 38672
        },
        {
            "buffer" : 0,
            "byteLength" : 17676,
            "byteOffset" : 40792
        },
        {
            "buffer" : 0,
            "byteLength" : 11784,
            "byteOffset" : 58468
        },
        {
            "buffer" : 0,
            "byteLength" : 17136,
            "byteOffset" : 70252
        },
        {
            "buffer" : 0,
            "byteLength" : 17676,
            "byteOffset" : 87388
        },
        {
            "buffer" : 0,
            "byteLength" : 11784,
            "byteOffset" : 105064
        },
        {
            "buffer" : 0,
            "byteLength" : 10188,
            "byteOffset" : 116848
        },
        {
            "buffer" : 0,
            "byteLength" : 6792,
            "byteOffset" : 127036
        },
        {
            "buffer" : 0,
            "byteLength" : 9408,
            "byteOffset" : 133828
        }
    ],
    "buffers" : [
        {
            "byteLength" : 143236,
            "uri" : "data:application/octet-stream;base64,"
        }
    ]
}
