{
    "asset" : {
        "generator" : "Khronos glTF Blender I/O v1.5.17",
        "version" : "2.0"
    },
    "scene" : 0,
    "scenes" : [
        {
            "name" : "Scene",
            "nodes" : [
                0
            ]
        }
    ],
    "nodes" : [
        {
            "mesh" : 0,
            "name" : "clock",
            "rotation" : [
                0.5,
                -0.4999999701976776,
                -0.5,
                0.5000000596046448
            ],
            "scale" : [
                0.0035121538676321507,
                8.667556762695312,
                0.0035121538676321507
            ],
            "translation" : [
                0,
                0.04451848939061165,
                -1.0801372528076172
            ]
        }
    ],
    "meshes" : [
        {
            "name" : "Plane.002",
            "primitives" : [
                {
                    "attributes" : {
                        "POSITION" : 0,
                        "TEXCOORD_0" : 1
                    },
                    "indices" : 2
                }
            ]
        }
    ],
    "accessors" : [
        {
            "bufferView" : 0,
            "componentType" : 5126,
            "count" : 180,
            "max" : [
                7.000001430511475,
                0,
                19
            ],
            "min" : [
                -6.999999046325684,
                0,
                -19
            ],
            "type" : "VEC3"
        },
        {
            "bufferView" : 1,
            "componentType" : 5126,
            "count" : 180,
            "type" : "VEC2"
        },
        {
            "bufferView" : 2,
            "componentType" : 5123,
            "count" : 360,
            "type" : "SCALAR"
        }
    ],
    "bufferViews" : [
        {
            "buffer" : 0,
            "byteLength" : 2160,
            "byteOffset" : 0
        },
        {
            "buffer" : 0,
            "byteLength" : 1440,
            "byteOffset" : 2160
        },
        {
            "buffer" : 0,
            "byteLength" : 720,
            "byteOffset" : 3600
        }
    ],
    "buffers" : [
        {
            "byteLength" : 4320,
            "uri" : "data:application/octet-stream;base64,"
        }
    ]
}
