{
    "asset" : {
        "generator" : "Khronos glTF Blender I/O v1.4.40",
        "version" : "2.0"
    },
    "scene" : 0,
    "scenes" : [
        {
            "extras" : {
                "skinify" : {
                    "connect_mesh" : 0,
                    "connect_parents" : 0,
                    "generate_all" : 0,
                    "thickness" : 0.800000011920929,
                    "finger_thickness" : 0.25,
                    "apply_mod" : 1,
                    "parent_armature" : 1,
                    "sub_level" : 1
                },
                "glTF2ExportSettings" : {
                    "export_animations" : 0,
                    "export_apply" : 1,
                    "export_cameras" : 1,
                    "export_colors" : 0,
                    "export_extras" : 1,
                    "export_format" : "GLTF_EMBEDDED",
                    "export_materials" : "NONE",
                    "export_morph" : 0,
                    "export_skins" : 0,
                    "use_selection" : 1
                }
            },
            "name" : "Scene",
            "nodes" : [
                6
            ]
        }
    ],
    "nodes" : [
        {
            "mesh" : 0,
            "name" : "backLLeg",
            "rotation" : [
                -0.03536562994122505,
                -0.010959554463624954,
                -0.9801600575447083,
                0.19471928477287292
            ],
            "scale" : [
                -0.22843484580516815,
                -0.715968906879425,
                -0.3989223539829254
            ],
            "translation" : [
                0.5217862129211426,
                2.560297727584839,
                1.4323129653930664
            ]
        },
        {
            "mesh" : 1,
            "name" : "backRLeg",
            "rotation" : [
                0.05501626804471016,
                0,
                0,
                0.9984855055809021
            ],
            "scale" : [
                0.20922669768333435,
                0.7240428328514099,
                0.3992035686969757
            ],
            "translation" : [
                0.5217866897583008,
                2.560297727584839,
                0
            ]
        },
        {
            "mesh" : 2,
            "name" : "coyoteHead",
            "scale" : [
                0.21725332736968994,
                0.6244544386863708,
                0.5562599897384644
            ],
            "translation" : [
                -0.8368501663208008,
                3.354863405227661,
                0
            ]
        },
        {
            "mesh" : 3,
            "name" : "frontLLeg",
            "rotation" : [
                0,
                -0.06232833117246628,
                -0.9980558156967163,
                -6.971455235316171e-08
            ],
            "scale" : [
                -0.20922668278217316,
                -0.7237904071807861,
                -0.3993779122829437
            ],
            "translation" : [
                -0.5111851692199707,
                2.560297727584839,
                1.5144214630126953
            ]
        },
        {
            "mesh" : 4,
            "name" : "frontRLeg",
            "rotation" : [
                0.05501626804471016,
                0,
                0,
                0.9984855055809021
            ],
            "scale" : [
                0.20922669768333435,
                0.7240428328514099,
                0.3992035686969757
            ],
            "translation" : [
                -0.5111846923828125,
                2.560297727584839,
                0
            ]
        },
        {
            "mesh" : 5,
            "name" : "tail",
            "rotation" : [
                0,
                0,
                -0.31283435225486755,
                0.9498077034950256
            ],
            "scale" : [
                1.3149086236953735,
                0.5283286571502686,
                0.5562599897384644
            ],
            "translation" : [
                0.7476100921630859,
                3.47562575340271,
                0.6927604675292969
            ]
        },
        {
            "children" : [
                0,
                1,
                2,
                3,
                4,
                5
            ],
            "mesh" : 6,
            "name" : "coyoteBod",
            "rotation" : [
                0,
                0.9690613150596619,
                0,
                -0.2468200922012329
            ],
            "scale" : [
                0.7985405325889587,
                0.2778193950653076,
                0.31187862157821655
            ],
            "translation" : [
                -4.448683738708496,
                -0.990972638130188,
                0
            ]
        }
    ],
    "meshes" : [
        {
            "name" : "Cube.005",
            "primitives" : [
                {
                    "attributes" : {
                        "POSITION" : 0,
                        "NORMAL" : 1,
                        "TEXCOORD_0" : 2
                    },
                    "indices" : 3
                }
            ]
        },
        {
            "name" : "Cube.004",
            "primitives" : [
                {
                    "attributes" : {
                        "POSITION" : 4,
                        "NORMAL" : 5,
                        "TEXCOORD_0" : 6
                    },
                    "indices" : 3
                }
            ]
        },
        {
            "name" : "Cube",
            "primitives" : [
                {
                    "attributes" : {
                        "POSITION" : 7,
                        "NORMAL" : 8,
                        "TEXCOORD_0" : 9
                    },
                    "indices" : 10
                }
            ]
        },
        {
            "name" : "Cube.003",
            "primitives" : [
                {
                    "attributes" : {
                        "POSITION" : 11,
                        "NORMAL" : 12,
                        "TEXCOORD_0" : 13
                    },
                    "indices" : 14
                }
            ]
        },
        {
            "name" : "Cube.002",
            "primitives" : [
                {
                    "attributes" : {
                        "POSITION" : 15,
                        "NORMAL" : 16,
                        "TEXCOORD_0" : 17
                    },
                    "indices" : 14
                }
            ]
        },
        {
            "name" : "Cube.006",
            "primitives" : [
                {
                    "attributes" : {
                        "POSITION" : 18,
                        "NORMAL" : 19,
                        "TEXCOORD_0" : 20
                    },
                    "indices" : 21
                }
            ]
        },
        {
            "name" : "Cube.001",
            "primitives" : [
                {
                    "attributes" : {
                        "POSITION" : 22,
                        "NORMAL" : 23,
                        "TEXCOORD_0" : 24
                    },
                    "indices" : 25
                }
            ]
        }
    ],
    "accessors" : [
        {
            "bufferView" : 0,
            "componentType" : 5126,
            "count" : 224,
            "max" : [
                1.4515366554260254,
                1.1332120895385742,
                0.8453736305236816
            ],
            "min" : [
                -1.0135300159454346,
                -3.547849655151367,
                -0.8410187363624573
            ],
            "type" : "VEC3"
        },
        {
            "bufferView" : 1,
            "componentType" : 5126,
            "count" : 224,
            "type" : "VEC3"
        },
        {
            "bufferView" : 2,
            "componentType" : 5126,
            "count" : 224,
            "type" : "VEC2"
        },
        {
            "bufferView" : 3,
            "componentType" : 5123,
            "count" : 336,
            "type" : "SCALAR"
        },
        {
            "bufferView" : 4,
            "componentType" : 5126,
            "count" : 224,
            "max" : [
                1.4515366554260254,
                1.1332120895385742,
                0.8453736305236816
            ],
            "min" : [
                -1.0135300159454346,
                -3.547849655151367,
                -0.8410187363624573
            ],
            "type" : "VEC3"
        },
        {
            "bufferView" : 5,
            "componentType" : 5126,
            "count" : 224,
            "type" : "VEC3"
        },
        {
            "bufferView" : 6,
            "componentType" : 5126,
            "count" : 224,
            "type" : "VEC2"
        },
        {
            "bufferView" : 7,
            "componentType" : 5126,
            "count" : 320,
            "max" : [
                1.6806187629699707,
                2.465940237045288,
                2.000903844833374
            ],
            "min" : [
                -1.6806187629699707,
                -1.3719663619995117,
                -2.886291265487671
            ],
            "type" : "VEC3"
        },
        {
            "bufferView" : 8,
            "componentType" : 5126,
            "count" : 320,
            "type" : "VEC3"
        },
        {
            "bufferView" : 9,
            "componentType" : 5126,
            "count" : 320,
            "type" : "VEC2"
        },
        {
            "bufferView" : 10,
            "componentType" : 5123,
            "count" : 480,
            "type" : "SCALAR"
        },
        {
            "bufferView" : 11,
            "componentType" : 5126,
            "count" : 224,
            "max" : [
                0.8395062685012817,
                0.8395062685012817,
                0.8395062685012817
            ],
            "min" : [
                -1.0135300159454346,
                -3.547849655151367,
                -0.8395062685012817
            ],
            "type" : "VEC3"
        },
        {
            "bufferView" : 12,
            "componentType" : 5126,
            "count" : 224,
            "type" : "VEC3"
        },
        {
            "bufferView" : 13,
            "componentType" : 5126,
            "count" : 224,
            "type" : "VEC2"
        },
        {
            "bufferView" : 14,
            "componentType" : 5123,
            "count" : 336,
            "type" : "SCALAR"
        },
        {
            "bufferView" : 15,
            "componentType" : 5126,
            "count" : 224,
            "max" : [
                0.8395062685012817,
                0.8395062685012817,
                0.8395062685012817
            ],
            "min" : [
                -1.0135300159454346,
                -3.547849655151367,
                -0.8395062685012817
            ],
            "type" : "VEC3"
        },
        {
            "bufferView" : 16,
            "componentType" : 5126,
            "count" : 224,
            "type" : "VEC3"
        },
        {
            "bufferView" : 17,
            "componentType" : 5126,
            "count" : 224,
            "type" : "VEC2"
        },
        {
            "bufferView" : 18,
            "componentType" : 5126,
            "count" : 96,
            "max" : [
                1.663367748260498,
                1.0481795072555542,
                0.9569518566131592
            ],
            "min" : [
                -1.1920928955078125e-07,
                -0.8044337034225464,
                -0.7345040440559387
            ],
            "type" : "VEC3"
        },
        {
            "bufferView" : 19,
            "componentType" : 5126,
            "count" : 96,
            "type" : "VEC3"
        },
        {
            "bufferView" : 20,
            "componentType" : 5126,
            "count" : 96,
            "type" : "VEC2"
        },
        {
            "bufferView" : 21,
            "componentType" : 5123,
            "count" : 144,
            "type" : "SCALAR"
        },
        {
            "bufferView" : 22,
            "componentType" : 5126,
            "count" : 256,
            "max" : [
                0.955647885799408,
                3.78941011428833,
                1.7840466499328613
            ],
            "min" : [
                -0.9738047122955322,
                1.6015186309814453,
                -0.3000197410583496
            ],
            "type" : "VEC3"
        },
        {
            "bufferView" : 23,
            "componentType" : 5126,
            "count" : 256,
            "type" : "VEC3"
        },
        {
            "bufferView" : 24,
            "componentType" : 5126,
            "count" : 256,
            "type" : "VEC2"
        },
        {
            "bufferView" : 25,
            "componentType" : 5123,
            "count" : 384,
            "type" : "SCALAR"
        }
    ],
    "bufferViews" : [
        {
            "buffer" : 0,
            "byteLength" : 2688,
            "byteOffset" : 0
        },
        {
            "buffer" : 0,
            "byteLength" : 2688,
            "byteOffset" : 2688
        },
        {
            "buffer" : 0,
            "byteLength" : 1792,
            "byteOffset" : 5376
        },
        {
            "buffer" : 0,
            "byteLength" : 672,
            "byteOffset" : 7168
        },
        {
            "buffer" : 0,
            "byteLength" : 2688,
            "byteOffset" : 7840
        },
        {
            "buffer" : 0,
            "byteLength" : 2688,
            "byteOffset" : 10528
        },
        {
            "buffer" : 0,
            "byteLength" : 1792,
            "byteOffset" : 13216
        },
        {
            "buffer" : 0,
            "byteLength" : 3840,
            "byteOffset" : 15008
        },
        {
            "buffer" : 0,
            "byteLength" : 3840,
            "byteOffset" : 18848
        },
        {
            "buffer" : 0,
            "byteLength" : 2560,
            "byteOffset" : 22688
        },
        {
            "buffer" : 0,
            "byteLength" : 960,
            "byteOffset" : 25248
        },
        {
            "buffer" : 0,
            "byteLength" : 2688,
            "byteOffset" : 26208
        },
        {
            "buffer" : 0,
            "byteLength" : 2688,
            "byteOffset" : 28896
        },
        {
            "buffer" : 0,
            "byteLength" : 1792,
            "byteOffset" : 31584
        },
        {
            "buffer" : 0,
            "byteLength" : 672,
            "byteOffset" : 33376
        },
        {
            "buffer" : 0,
            "byteLength" : 2688,
            "byteOffset" : 34048
        },
        {
            "buffer" : 0,
            "byteLength" : 2688,
            "byteOffset" : 36736
        },
        {
            "buffer" : 0,
            "byteLength" : 1792,
            "byteOffset" : 39424
        },
        {
            "buffer" : 0,
            "byteLength" : 1152,
            "byteOffset" : 41216
        },
        {
            "buffer" : 0,
            "byteLength" : 1152,
            "byteOffset" : 42368
        },
        {
            "buffer" : 0,
            "byteLength" : 768,
            "byteOffset" : 43520
        },
        {
            "buffer" : 0,
            "byteLength" : 288,
            "byteOffset" : 44288
        },
        {
            "buffer" : 0,
            "byteLength" : 3072,
            "byteOffset" : 44576
        },
        {
            "buffer" : 0,
            "byteLength" : 3072,
            "byteOffset" : 47648
        },
        {
            "buffer" : 0,
            "byteLength" : 2048,
            "byteOffset" : 50720
        },
        {
            "buffer" : 0,
            "byteLength" : 768,
            "byteOffset" : 52768
        }
    ],
    "buffers" : [
        {
            "byteLength" : 53536,
            "uri" : "data:application/octet-stream;base64,"
        }
    ]
}
