{
    "asset" : {
        "generator" : "Khronos glTF Blender I/O v1.4.40",
        "version" : "2.0"
    },
    "scene" : 0,
    "scenes" : [
        {
            "extras" : {
                "skinify" : {
                    "connect_mesh" : 0,
                    "connect_parents" : 0,
                    "generate_all" : 0,
                    "thickness" : 0.800000011920929,
                    "finger_thickness" : 0.25,
                    "apply_mod" : 1,
                    "parent_armature" : 1,
                    "sub_level" : 1
                },
                "glTF2ExportSettings" : {
                    "export_animations" : 0,
                    "export_apply" : 1,
                    "export_cameras" : 1,
                    "export_colors" : 0,
                    "export_extras" : 1,
                    "export_format" : "GLTF_EMBEDDED",
                    "export_materials" : "NONE",
                    "export_morph" : 0,
                    "export_skins" : 0,
                    "use_selection" : 1
                }
            },
            "name" : "Scene",
            "nodes" : [
                4
            ]
        }
    ],
    "nodes" : [
        {
            "mesh" : 0,
            "name" : "Cube.156",
            "rotation" : [
                0,
                0,
                0.8681570887565613,
                0.49628958106040955
            ],
            "scale" : [
                -0.44005411863327026,
                -0.34745994210243225,
                -0.7899974584579468
            ],
            "translation" : [
                0,
                -0.39369118213653564,
                -1.1973342895507812
            ]
        },
        {
            "mesh" : 1,
            "name" : "Cube.157",
            "rotation" : [
                0,
                0,
                -1,
                0
            ],
            "scale" : [
                -0.03641420602798462,
                -2.191013813018799,
                -1.0376863479614258
            ],
            "translation" : [
                -0.5541050434112549,
                -1.4147354364395142,
                1.7111740112304688
            ]
        },
        {
            "mesh" : 2,
            "name" : "Cube.158",
            "rotation" : [
                0,
                0,
                -1,
                0
            ],
            "scale" : [
                -0.03641420602798462,
                -2.191013813018799,
                -1.0376863479614258
            ],
            "translation" : [
                0.5303661823272705,
                -1.4147354364395142,
                1.7111740112304688
            ]
        },
        {
            "mesh" : 3,
            "name" : "Grid.004",
            "rotation" : [
                0,
                0.7071069478988647,
                0.7071065902709961,
                -7.850461497319446e-17
            ],
            "scale" : [
                -0.5267037153244019,
                -22.139806747436523,
                -0.9999998807907104
            ],
            "translation" : [
                0.12050104141235352,
                0.07701575756072998,
                -0.776092529296875
            ]
        },
        {
            "children" : [
                0,
                1,
                2,
                3
            ],
            "mesh" : 4,
            "name" : "Cube.155",
            "rotation" : [
                0,
                -0.05721309036016464,
                0,
                0.9983620047569275
            ],
            "scale" : [
                1.8986003398895264,
                1,
                -0.045167505741119385
            ],
            "translation" : [
                5.202902793884277,
                1.549742341041565,
                -2.457498550415039
            ]
        }
    ],
    "meshes" : [
        {
            "name" : "Cube.029",
            "primitives" : [
                {
                    "attributes" : {
                        "POSITION" : 0,
                        "NORMAL" : 1,
                        "TEXCOORD_0" : 2
                    },
                    "indices" : 3
                }
            ]
        },
        {
            "name" : "Cube.030",
            "primitives" : [
                {
                    "attributes" : {
                        "POSITION" : 4,
                        "NORMAL" : 5,
                        "TEXCOORD_0" : 6
                    },
                    "indices" : 7
                }
            ]
        },
        {
            "name" : "Cube.031",
            "primitives" : [
                {
                    "attributes" : {
                        "POSITION" : 8,
                        "NORMAL" : 9,
                        "TEXCOORD_0" : 10
                    },
                    "indices" : 7
                }
            ]
        },
        {
            "name" : "Grid.001",
            "primitives" : [
                {
                    "attributes" : {
                        "POSITION" : 11,
                        "NORMAL" : 12,
                        "TEXCOORD_0" : 13
                    },
                    "indices" : 14
                }
            ]
        },
        {
            "name" : "Cube.028",
            "primitives" : [
                {
                    "attributes" : {
                        "POSITION" : 15,
                        "NORMAL" : 16,
                        "TEXCOORD_0" : 17
                    },
                    "indices" : 18
                }
            ]
        }
    ],
    "accessors" : [
        {
            "bufferView" : 0,
            "componentType" : 5126,
            "count" : 63,
            "max" : [
                0.6631034016609192,
                1,
                1
            ],
            "min" : [
                -0.6631024479866028,
                -1,
                -1
            ],
            "type" : "VEC3"
        },
        {
            "bufferView" : 1,
            "componentType" : 5126,
            "count" : 63,
            "type" : "VEC3"
        },
        {
            "bufferView" : 2,
            "componentType" : 5126,
            "count" : 63,
            "type" : "VEC2"
        },
        {
            "bufferView" : 3,
            "componentType" : 5123,
            "count" : 123,
            "type" : "SCALAR"
        },
        {
            "bufferView" : 4,
            "componentType" : 5126,
            "count" : 24,
            "max" : [
                1,
                1,
                1
            ],
            "min" : [
                -1,
                -1,
                -1
            ],
            "type" : "VEC3"
        },
        {
            "bufferView" : 5,
            "componentType" : 5126,
            "count" : 24,
            "type" : "VEC3"
        },
        {
            "bufferView" : 6,
            "componentType" : 5126,
            "count" : 24,
            "type" : "VEC2"
        },
        {
            "bufferView" : 7,
            "componentType" : 5123,
            "count" : 36,
            "type" : "SCALAR"
        },
        {
            "bufferView" : 8,
            "componentType" : 5126,
            "count" : 24,
            "max" : [
                1,
                1,
                1
            ],
            "min" : [
                -1,
                -1,
                -1
            ],
            "type" : "VEC3"
        },
        {
            "bufferView" : 9,
            "componentType" : 5126,
            "count" : 24,
            "type" : "VEC3"
        },
        {
            "bufferView" : 10,
            "componentType" : 5126,
            "count" : 24,
            "type" : "VEC2"
        },
        {
            "bufferView" : 11,
            "componentType" : 5126,
            "count" : 668,
            "max" : [
                0.6666667461395264,
                0.05847850441932678,
                2.220446049250313e-16
            ],
            "min" : [
                -1,
                0,
                -0.5833333730697632
            ],
            "type" : "VEC3"
        },
        {
            "bufferView" : 12,
            "componentType" : 5126,
            "count" : 668,
            "type" : "VEC3"
        },
        {
            "bufferView" : 13,
            "componentType" : 5126,
            "count" : 668,
            "type" : "VEC2"
        },
        {
            "bufferView" : 14,
            "componentType" : 5123,
            "count" : 1320,
            "type" : "SCALAR"
        },
        {
            "bufferView" : 15,
            "componentType" : 5126,
            "count" : 160,
            "max" : [
                1,
                1,
                1
            ],
            "min" : [
                -1,
                -1,
                -1
            ],
            "type" : "VEC3"
        },
        {
            "bufferView" : 16,
            "componentType" : 5126,
            "count" : 160,
            "type" : "VEC3"
        },
        {
            "bufferView" : 17,
            "componentType" : 5126,
            "count" : 160,
            "type" : "VEC2"
        },
        {
            "bufferView" : 18,
            "componentType" : 5123,
            "count" : 372,
            "type" : "SCALAR"
        }
    ],
    "bufferViews" : [
        {
            "buffer" : 0,
            "byteLength" : 756,
            "byteOffset" : 0
        },
        {
            "buffer" : 0,
            "byteLength" : 756,
            "byteOffset" : 756
        },
        {
            "buffer" : 0,
            "byteLength" : 504,
            "byteOffset" : 1512
        },
        {
            "buffer" : 0,
            "byteLength" : 246,
            "byteOffset" : 2016
        },
        {
            "buffer" : 0,
            "byteLength" : 288,
            "byteOffset" : 2264
        },
        {
            "buffer" : 0,
            "byteLength" : 288,
            "byteOffset" : 2552
        },
        {
            "buffer" : 0,
            "byteLength" : 192,
            "byteOffset" : 2840
        },
        {
            "buffer" : 0,
            "byteLength" : 72,
            "byteOffset" : 3032
        },
        {
            "buffer" : 0,
            "byteLength" : 288,
            "byteOffset" : 3104
        },
        {
            "buffer" : 0,
            "byteLength" : 288,
            "byteOffset" : 3392
        },
        {
            "buffer" : 0,
            "byteLength" : 192,
            "byteOffset" : 3680
        },
        {
            "buffer" : 0,
            "byteLength" : 8016,
            "byteOffset" : 3872
        },
        {
            "buffer" : 0,
            "byteLength" : 8016,
            "byteOffset" : 11888
        },
        {
            "buffer" : 0,
            "byteLength" : 5344,
            "byteOffset" : 19904
        },
        {
            "buffer" : 0,
            "byteLength" : 2640,
            "byteOffset" : 25248
        },
        {
            "buffer" : 0,
            "byteLength" : 1920,
            "byteOffset" : 27888
        },
        {
            "buffer" : 0,
            "byteLength" : 1920,
            "byteOffset" : 29808
        },
        {
            "buffer" : 0,
            "byteLength" : 1280,
            "byteOffset" : 31728
        },
        {
            "buffer" : 0,
            "byteLength" : 744,
            "byteOffset" : 33008
        }
    ],
    "buffers" : [
        {
            "byteLength" : 33752,
            "uri" : "data:application/octet-stream;base64,"
        }
    ]
}
