{
    "asset" : {
        "generator" : "Khronos glTF Blender I/O v1.4.40",
        "version" : "2.0"
    },
    "scene" : 0,
    "scenes" : [
        {
            "extras" : {
                "skinify" : {
                    "connect_mesh" : 0,
                    "connect_parents" : 0,
                    "generate_all" : 0,
                    "thickness" : 0.800000011920929,
                    "finger_thickness" : 0.25,
                    "apply_mod" : 1,
                    "parent_armature" : 1,
                    "sub_level" : 1
                },
                "glTF2ExportSettings" : {
                    "export_animations" : 0,
                    "export_apply" : 1,
                    "export_cameras" : 1,
                    "export_colors" : 0,
                    "export_extras" : 1,
                    "export_format" : "GLTF_EMBEDDED",
                    "export_materials" : "NONE",
                    "export_morph" : 0,
                    "export_skins" : 0,
                    "use_selection" : 1
                }
            },
            "name" : "Scene",
            "nodes" : [
                0
            ]
        }
    ],
    "nodes" : [
        {
            "mesh" : 0,
            "name" : "longhornSkull",
            "rotation" : [
                -0.07766887545585632,
                -0.43501225113868713,
                -0.03213421255350113,
                0.8964927792549133
            ],
            "scale" : [
                0.17906886339187622,
                0.17906886339187622,
                0.17906886339187622
            ],
            "translation" : [
                3.5869712829589844,
                -1.2583043575286865,
                0
            ]
        }
    ],
    "meshes" : [
        {
            "name" : "Cube.010",
            "primitives" : [
                {
                    "attributes" : {
                        "POSITION" : 0,
                        "NORMAL" : 1,
                        "TEXCOORD_0" : 2
                    },
                    "indices" : 3
                }
            ]
        }
    ],
    "accessors" : [
        {
            "bufferView" : 0,
            "componentType" : 5126,
            "count" : 1253,
            "max" : [
                6.772345066070557,
                2.029289484024048,
                3.892996311187744
            ],
            "min" : [
                -7.456512451171875,
                -1.0326436758041382,
                -2.6876285076141357
            ],
            "type" : "VEC3"
        },
        {
            "bufferView" : 1,
            "componentType" : 5126,
            "count" : 1253,
            "type" : "VEC3"
        },
        {
            "bufferView" : 2,
            "componentType" : 5126,
            "count" : 1253,
            "type" : "VEC2"
        },
        {
            "bufferView" : 3,
            "componentType" : 5123,
            "count" : 1836,
            "type" : "SCALAR"
        }
    ],
    "bufferViews" : [
        {
            "buffer" : 0,
            "byteLength" : 15036,
            "byteOffset" : 0
        },
        {
            "buffer" : 0,
            "byteLength" : 15036,
            "byteOffset" : 15036
        },
        {
            "buffer" : 0,
            "byteLength" : 10024,
            "byteOffset" : 30072
        },
        {
            "buffer" : 0,
            "byteLength" : 3672,
            "byteOffset" : 40096
        }
    ],
    "buffers" : [
        {
            "byteLength" : 43768,
            "uri" : "data:application/octet-stream;base64,"
        }
    ]
}
