{
    "asset" : {
        "generator" : "Khronos glTF Blender I/O v1.4.40",
        "version" : "2.0"
    },
    "scene" : 0,
    "scenes" : [
        {
            "extras" : {
                "skinify" : {
                    "connect_mesh" : 0,
                    "connect_parents" : 0,
                    "generate_all" : 0,
                    "thickness" : 0.800000011920929,
                    "finger_thickness" : 0.25,
                    "apply_mod" : 1,
                    "parent_armature" : 1,
                    "sub_level" : 1
                },
                "glTF2ExportSettings" : {
                    "export_animations" : 0,
                    "export_colors" : 0,
                    "export_extras" : 1,
                    "export_format" : "GLTF_EMBEDDED",
                    "export_materials" : "NONE",
                    "export_morph" : 0,
                    "export_skins" : 0,
                    "use_selection" : 1
                }
            },
            "name" : "Scene",
            "nodes" : [
                0,
                1,
                2,
                4,
                6,
                7
            ]
        }
    ],
    "nodes" : [
        {
            "mesh" : 0,
            "name" : "gun",
            "rotation" : [
                0.6196500062942505,
                0.6615504622459412,
                -0.25674936175346375,
                0.3353574573993683
            ],
            "scale" : [
                0.33540546894073486,
                0.04622206464409828,
                0.08803042024374008
            ],
            "translation" : [
                1.406268835067749,
                -0.2624431848526001,
                1.8738011121749878
            ]
        },
        {
            "mesh" : 1,
            "name" : "packingBox",
            "rotation" : [
                0,
                -0.057040221989154816,
                0,
                0.9983718991279602
            ],
            "scale" : [
                0.3085392713546753,
                0.3085392713546753,
                0.3085392713546753
            ],
            "translation" : [
                0.6928735971450806,
                -0.5466337203979492,
                2.5904030799865723
            ]
        },
        {
            "mesh" : 1,
            "name" : "packingBox.001",
            "rotation" : [
                0,
                -0.7723231911659241,
                0,
                0.6352299451828003
            ],
            "scale" : [
                0.3085392713546753,
                0.3085392713546753,
                0.3085392713546753
            ],
            "translation" : [
                -0.015592455863952637,
                -0.5613378286361694,
                2.5358705520629883
            ]
        },
        {
            "mesh" : 2,
            "name" : "jerryCanCap",
            "rotation" : [
                -0.3291214406490326,
                0,
                0,
                0.9442875981330872
            ],
            "scale" : [
                0.2622586190700531,
                0.06372789293527603,
                0.20698128640651703
            ],
            "translation" : [
                0,
                0.7019009590148926,
                -0.7757682800292969
            ]
        },
        {
            "children" : [
                3
            ],
            "mesh" : 3,
            "name" : "jerryCanBase",
            "rotation" : [
                0,
                0.05455287545919418,
                0,
                0.9985108971595764
            ],
            "scale" : [
                0.19128377735614777,
                0.2423688769340515,
                0.2423688769340515
            ],
            "translation" : [
                1.0407835245132446,
                -0.6257903575897217,
                1.2511307001113892
            ]
        },
        {
            "mesh" : 4,
            "name" : "Grid.001",
            "scale" : [
                0.1657901555299759,
                0.6761641502380371,
                0.24520544707775116
            ],
            "translation" : [
                0,
                0.2261343002319336,
                -0.9931832551956177
            ]
        },
        {
            "children" : [
                5
            ],
            "mesh" : 5,
            "name" : "suitcaseBase",
            "rotation" : [
                0,
                -0.12455479800701141,
                0,
                0.9922128319740295
            ],
            "scale" : [
                0.8780822157859802,
                0.2152988761663437,
                0.5936955213546753
            ],
            "translation" : [
                -0.199583038687706,
                -0.6656534671783447,
                1.3211033344268799
            ]
        },
        {
            "mesh" : 1,
            "name" : "packingBox.002",
            "rotation" : [
                0,
                0.10243544727563858,
                0,
                0.9947396516799927
            ],
            "scale" : [
                0.3085392713546753,
                0.23095549643039703,
                0.3085392713546753
            ],
            "translation" : [
                0.08909189701080322,
                -0.22592870891094208,
                1.589484691619873
            ]
        }
    ],
    "meshes" : [
        {
            "name" : "Cube.016",
            "primitives" : [
                {
                    "attributes" : {
                        "POSITION" : 0,
                        "NORMAL" : 1,
                        "TEXCOORD_0" : 2
                    },
                    "indices" : 3
                }
            ]
        },
        {
            "name" : "Cube.005",
            "primitives" : [
                {
                    "attributes" : {
                        "POSITION" : 4,
                        "NORMAL" : 5,
                        "TEXCOORD_0" : 6
                    },
                    "indices" : 7
                }
            ]
        },
        {
            "name" : "Cylinder.002",
            "primitives" : [
                {
                    "attributes" : {
                        "POSITION" : 8,
                        "NORMAL" : 9,
                        "TEXCOORD_0" : 10
                    },
                    "indices" : 11
                }
            ]
        },
        {
            "name" : "Cube.018",
            "primitives" : [
                {
                    "attributes" : {
                        "POSITION" : 12,
                        "NORMAL" : 13,
                        "TEXCOORD_0" : 14
                    },
                    "indices" : 15
                }
            ]
        },
        {
            "name" : "Grid.001",
            "primitives" : [
                {
                    "attributes" : {
                        "POSITION" : 16,
                        "NORMAL" : 17,
                        "TEXCOORD_0" : 18
                    },
                    "indices" : 19
                }
            ]
        },
        {
            "name" : "Cube.019",
            "primitives" : [
                {
                    "attributes" : {
                        "POSITION" : 20,
                        "NORMAL" : 21,
                        "TEXCOORD_0" : 22
                    },
                    "indices" : 23
                }
            ]
        }
    ],
    "accessors" : [
        {
            "bufferView" : 0,
            "componentType" : 5126,
            "count" : 992,
            "max" : [
                3.90328311920166,
                1.384745717048645,
                3.323032855987549
            ],
            "min" : [
                -2.976223945617676,
                -1.384743571281433,
                -1.2580995559692383
            ],
            "type" : "VEC3"
        },
        {
            "bufferView" : 1,
            "componentType" : 5126,
            "count" : 992,
            "type" : "VEC3"
        },
        {
            "bufferView" : 2,
            "componentType" : 5126,
            "count" : 992,
            "type" : "VEC2"
        },
        {
            "bufferView" : 3,
            "componentType" : 5123,
            "count" : 1032,
            "type" : "SCALAR"
        },
        {
            "bufferView" : 4,
            "componentType" : 5126,
            "count" : 90,
            "max" : [
                1,
                1,
                1
            ],
            "min" : [
                -1,
                -1,
                -1
            ],
            "type" : "VEC3"
        },
        {
            "bufferView" : 5,
            "componentType" : 5126,
            "count" : 90,
            "type" : "VEC3"
        },
        {
            "bufferView" : 6,
            "componentType" : 5126,
            "count" : 90,
            "type" : "VEC2"
        },
        {
            "bufferView" : 7,
            "componentType" : 5123,
            "count" : 168,
            "type" : "SCALAR"
        },
        {
            "bufferView" : 8,
            "componentType" : 5126,
            "count" : 193,
            "max" : [
                0.9510565400123596,
                2.5881845951080322,
                1
            ],
            "min" : [
                -0.9510564804077148,
                -1,
                -1
            ],
            "type" : "VEC3"
        },
        {
            "bufferView" : 9,
            "componentType" : 5126,
            "count" : 193,
            "type" : "VEC3"
        },
        {
            "bufferView" : 10,
            "componentType" : 5126,
            "count" : 193,
            "type" : "VEC2"
        },
        {
            "bufferView" : 11,
            "componentType" : 5123,
            "count" : 300,
            "type" : "SCALAR"
        },
        {
            "bufferView" : 12,
            "componentType" : 5126,
            "count" : 308,
            "max" : [
                1,
                1.0795435905456543,
                1
            ],
            "min" : [
                -1,
                -1,
                -1
            ],
            "type" : "VEC3"
        },
        {
            "bufferView" : 13,
            "componentType" : 5126,
            "count" : 308,
            "type" : "VEC3"
        },
        {
            "bufferView" : 14,
            "componentType" : 5126,
            "count" : 308,
            "type" : "VEC2"
        },
        {
            "bufferView" : 15,
            "componentType" : 5123,
            "count" : 456,
            "type" : "SCALAR"
        },
        {
            "bufferView" : 16,
            "componentType" : 5126,
            "count" : 64,
            "max" : [
                1,
                0,
                0.3333333134651184
            ],
            "min" : [
                -1,
                -0.27416330575942993,
                -1
            ],
            "type" : "VEC3"
        },
        {
            "bufferView" : 17,
            "componentType" : 5126,
            "count" : 64,
            "type" : "VEC3"
        },
        {
            "bufferView" : 18,
            "componentType" : 5126,
            "count" : 64,
            "type" : "VEC2"
        },
        {
            "bufferView" : 19,
            "componentType" : 5123,
            "count" : 132,
            "type" : "SCALAR"
        },
        {
            "bufferView" : 20,
            "componentType" : 5126,
            "count" : 160,
            "max" : [
                1,
                1,
                1
            ],
            "min" : [
                -1,
                -1,
                -1
            ],
            "type" : "VEC3"
        },
        {
            "bufferView" : 21,
            "componentType" : 5126,
            "count" : 160,
            "type" : "VEC3"
        },
        {
            "bufferView" : 22,
            "componentType" : 5126,
            "count" : 160,
            "type" : "VEC2"
        },
        {
            "bufferView" : 23,
            "componentType" : 5123,
            "count" : 228,
            "type" : "SCALAR"
        }
    ],
    "bufferViews" : [
        {
            "buffer" : 0,
            "byteLength" : 11904,
            "byteOffset" : 0
        },
        {
            "buffer" : 0,
            "byteLength" : 11904,
            "byteOffset" : 11904
        },
        {
            "buffer" : 0,
            "byteLength" : 7936,
            "byteOffset" : 23808
        },
        {
            "buffer" : 0,
            "byteLength" : 2064,
            "byteOffset" : 31744
        },
        {
            "buffer" : 0,
            "byteLength" : 1080,
            "byteOffset" : 33808
        },
        {
            "buffer" : 0,
            "byteLength" : 1080,
            "byteOffset" : 34888
        },
        {
            "buffer" : 0,
            "byteLength" : 720,
            "byteOffset" : 35968
        },
        {
            "buffer" : 0,
            "byteLength" : 336,
            "byteOffset" : 36688
        },
        {
            "buffer" : 0,
            "byteLength" : 2316,
            "byteOffset" : 37024
        },
        {
            "buffer" : 0,
            "byteLength" : 2316,
            "byteOffset" : 39340
        },
        {
            "buffer" : 0,
            "byteLength" : 1544,
            "byteOffset" : 41656
        },
        {
            "buffer" : 0,
            "byteLength" : 600,
            "byteOffset" : 43200
        },
        {
            "buffer" : 0,
            "byteLength" : 3696,
            "byteOffset" : 43800
        },
        {
            "buffer" : 0,
            "byteLength" : 3696,
            "byteOffset" : 47496
        },
        {
            "buffer" : 0,
            "byteLength" : 2464,
            "byteOffset" : 51192
        },
        {
            "buffer" : 0,
            "byteLength" : 912,
            "byteOffset" : 53656
        },
        {
            "buffer" : 0,
            "byteLength" : 768,
            "byteOffset" : 54568
        },
        {
            "buffer" : 0,
            "byteLength" : 768,
            "byteOffset" : 55336
        },
        {
            "buffer" : 0,
            "byteLength" : 512,
            "byteOffset" : 56104
        },
        {
            "buffer" : 0,
            "byteLength" : 264,
            "byteOffset" : 56616
        },
        {
            "buffer" : 0,
            "byteLength" : 1920,
            "byteOffset" : 56880
        },
        {
            "buffer" : 0,
            "byteLength" : 1920,
            "byteOffset" : 58800
        },
        {
            "buffer" : 0,
            "byteLength" : 1280,
            "byteOffset" : 60720
        },
        {
            "buffer" : 0,
            "byteLength" : 456,
            "byteOffset" : 62000
        }
    ],
    "buffers" : [
        {
            "byteLength" : 62456,
            "uri" : "data:application/octet-stream;base64,"
        }
    ]
}
