{
    "asset" : {
        "generator" : "Khronos glTF Blender I/O v1.4.40",
        "version" : "2.0"
    },
    "scene" : 0,
    "scenes" : [
        {
            "extras" : {
                "skinify" : {
                    "connect_mesh" : 0,
                    "connect_parents" : 0,
                    "generate_all" : 0,
                    "thickness" : 0.800000011920929,
                    "finger_thickness" : 0.25,
                    "apply_mod" : 1,
                    "parent_armature" : 1,
                    "sub_level" : 1
                },
                "glTF2ExportSettings" : {
                    "export_animations" : 0,
                    "export_apply" : 1,
                    "export_cameras" : 1,
                    "export_colors" : 0,
                    "export_extras" : 1,
                    "export_format" : "GLTF_EMBEDDED",
                    "export_materials" : "NONE",
                    "export_morph" : 0,
                    "export_skins" : 0,
                    "use_selection" : 1
                }
            },
            "name" : "Scene",
            "nodes" : [
                0
            ]
        }
    ],
    "nodes" : [
        {
            "mesh" : 0,
            "name" : "Cube.001",
            "rotation" : [
                -0.011570821516215801,
                -0.5360615253448486,
                0.007348549552261829,
                0.8440676331520081
            ],
            "scale" : [
                0.4872247278690338,
                0.4872246980667114,
                0.4872247278690338
            ],
            "translation" : [
                3.5297563076019287,
                -0.935425877571106,
                -8.457101821899414
            ]
        }
    ],
    "meshes" : [
        {
            "name" : "Cube.009",
            "primitives" : [
                {
                    "attributes" : {
                        "POSITION" : 0,
                        "NORMAL" : 1,
                        "TEXCOORD_0" : 2
                    },
                    "indices" : 3
                }
            ]
        }
    ],
    "accessors" : [
        {
            "bufferView" : 0,
            "componentType" : 5126,
            "count" : 1408,
            "max" : [
                0.7018610239028931,
                0.6606725454330444,
                0.9198111891746521
            ],
            "min" : [
                -0.7886557579040527,
                -1.1988277435302734,
                -0.7068299651145935
            ],
            "type" : "VEC3"
        },
        {
            "bufferView" : 1,
            "componentType" : 5126,
            "count" : 1408,
            "type" : "VEC3"
        },
        {
            "bufferView" : 2,
            "componentType" : 5126,
            "count" : 1408,
            "type" : "VEC2"
        },
        {
            "bufferView" : 3,
            "componentType" : 5123,
            "count" : 2112,
            "type" : "SCALAR"
        }
    ],
    "bufferViews" : [
        {
            "buffer" : 0,
            "byteLength" : 16896,
            "byteOffset" : 0
        },
        {
            "buffer" : 0,
            "byteLength" : 16896,
            "byteOffset" : 16896
        },
        {
            "buffer" : 0,
            "byteLength" : 11264,
            "byteOffset" : 33792
        },
        {
            "buffer" : 0,
            "byteLength" : 4224,
            "byteOffset" : 45056
        }
    ],
    "buffers" : [
        {
            "byteLength" : 49280,
            "uri" : "data:application/octet-stream;base64,"
        }
    ]
}
