{
    "asset" : {
        "generator" : "Khronos glTF Blender I/O v1.4.40",
        "version" : "2.0"
    },
    "scene" : 0,
    "scenes" : [
        {
            "extras" : {
                "skinify" : {
                    "connect_mesh" : 0,
                    "connect_parents" : 0,
                    "generate_all" : 0,
                    "thickness" : 0.800000011920929,
                    "finger_thickness" : 0.25,
                    "apply_mod" : 1,
                    "parent_armature" : 1,
                    "sub_level" : 1
                },
                "glTF2ExportSettings" : {
                    "export_animations" : 0,
                    "export_apply" : 1,
                    "export_cameras" : 1,
                    "export_colors" : 0,
                    "export_extras" : 1,
                    "export_format" : "GLTF_EMBEDDED",
                    "export_materials" : "NONE",
                    "export_morph" : 0,
                    "export_skins" : 0,
                    "use_selection" : 1
                }
            },
            "name" : "Scene",
            "nodes" : [
                0
            ]
        }
    ],
    "nodes" : [
        {
            "mesh" : 0,
            "name" : "Cube",
            "rotation" : [
                0,
                0.30497363209724426,
                0,
                0.9523608088493347
            ],
            "scale" : [
                0.602174699306488,
                0.602174699306488,
                0.602174699306488
            ],
            "translation" : [
                -11.10891056060791,
                -0.7451849579811096,
                -2.8183672428131104
            ]
        }
    ],
    "meshes" : [
        {
            "name" : "Cube.008",
            "primitives" : [
                {
                    "attributes" : {
                        "POSITION" : 0,
                        "NORMAL" : 1,
                        "TEXCOORD_0" : 2
                    },
                    "indices" : 3
                }
            ]
        }
    ],
    "accessors" : [
        {
            "bufferView" : 0,
            "componentType" : 5126,
            "count" : 1408,
            "max" : [
                0.8079618811607361,
                0.8948853611946106,
                0.8801021575927734
            ],
            "min" : [
                -0.7865501642227173,
                -1.2216678857803345,
                -0.7048079371452332
            ],
            "type" : "VEC3"
        },
        {
            "bufferView" : 1,
            "componentType" : 5126,
            "count" : 1408,
            "type" : "VEC3"
        },
        {
            "bufferView" : 2,
            "componentType" : 5126,
            "count" : 1408,
            "type" : "VEC2"
        },
        {
            "bufferView" : 3,
            "componentType" : 5123,
            "count" : 2112,
            "type" : "SCALAR"
        }
    ],
    "bufferViews" : [
        {
            "buffer" : 0,
            "byteLength" : 16896,
            "byteOffset" : 0
        },
        {
            "buffer" : 0,
            "byteLength" : 16896,
            "byteOffset" : 16896
        },
        {
            "buffer" : 0,
            "byteLength" : 11264,
            "byteOffset" : 33792
        },
        {
            "buffer" : 0,
            "byteLength" : 4224,
            "byteOffset" : 45056
        }
    ],
    "buffers" : [
        {
            "byteLength" : 49280,
            "uri" : "data:application/octet-stream;base64,"
        }
    ]
}
