{
    "asset" : {
        "generator" : "Khronos glTF Blender I/O v1.4.40",
        "version" : "2.0"
    },
    "scene" : 0,
    "scenes" : [
        {
            "extras" : {
                "skinify" : {
                    "connect_mesh" : 0,
                    "connect_parents" : 0,
                    "generate_all" : 0,
                    "thickness" : 0.800000011920929,
                    "finger_thickness" : 0.25,
                    "apply_mod" : 1,
                    "parent_armature" : 1,
                    "sub_level" : 1
                },
                "glTF2ExportSettings" : {
                    "export_animations" : 0,
                    "export_apply" : 1,
                    "export_cameras" : 1,
                    "export_colors" : 0,
                    "export_extras" : 1,
                    "export_format" : "GLTF_EMBEDDED",
                    "export_materials" : "NONE",
                    "export_morph" : 0,
                    "export_skins" : 0,
                    "use_selection" : 1
                }
            },
            "name" : "Scene",
            "nodes" : [
                3
            ]
        }
    ],
    "nodes" : [
        {
            "mesh" : 0,
            "name" : "Grid",
            "rotation" : [
                0,
                0.3826834559440613,
                0,
                0.9238795042037964
            ],
            "scale" : [
                0.7974494695663452,
                0.7974494099617004,
                0.7974494695663452
            ],
            "translation" : [
                0,
                0.044456832110881805,
                -1.9483460187911987
            ]
        },
        {
            "mesh" : 1,
            "name" : "Grid.001",
            "scale" : [
                0.5521436929702759,
                0.5521436929702759,
                0.5521437525749207
            ],
            "translation" : [
                -0.024752503260970116,
                0.0534590408205986,
                -1.970845341682434
            ]
        },
        {
            "mesh" : 2,
            "name" : "signPost",
            "scale" : [
                0.05545438826084137,
                0.02462012879550457,
                1.3247102499008179
            ]
        },
        {
            "children" : [
                0,
                1,
                2
            ],
            "name" : "Empty",
            "rotation" : [
                0.7071068286895752,
                0,
                0,
                0.7071068286895752
            ],
            "translation" : [
                2.737849473953247,
                -0.19803611934185028,
                0
            ]
        }
    ],
    "meshes" : [
        {
            "name" : "Grid",
            "primitives" : [
                {
                    "attributes" : {
                        "POSITION" : 0,
                        "NORMAL" : 1,
                        "TEXCOORD_0" : 2
                    },
                    "indices" : 3
                }
            ]
        },
        {
            "name" : "Grid.002",
            "primitives" : [
                {
                    "attributes" : {
                        "POSITION" : 4,
                        "NORMAL" : 5,
                        "TEXCOORD_0" : 6
                    },
                    "indices" : 7
                }
            ]
        },
        {
            "name" : "Cube.007",
            "primitives" : [
                {
                    "attributes" : {
                        "POSITION" : 8,
                        "NORMAL" : 9,
                        "TEXCOORD_0" : 10
                    },
                    "indices" : 11
                }
            ]
        }
    ],
    "accessors" : [
        {
            "bufferView" : 0,
            "componentType" : 5126,
            "count" : 244,
            "max" : [
                0.5,
                0.023466303944587708,
                0.5
            ],
            "min" : [
                -0.5,
                0,
                -0.5
            ],
            "type" : "VEC3"
        },
        {
            "bufferView" : 1,
            "componentType" : 5126,
            "count" : 244,
            "type" : "VEC3"
        },
        {
            "bufferView" : 2,
            "componentType" : 5126,
            "count" : 244,
            "type" : "VEC2"
        },
        {
            "bufferView" : 3,
            "componentType" : 5123,
            "count" : 480,
            "type" : "SCALAR"
        },
        {
            "bufferView" : 4,
            "componentType" : 5126,
            "count" : 382,
            "max" : [
                0.5,
                0.040030140429735184,
                0.33071765303611755
            ],
            "min" : [
                -0.3888888955116272,
                0.013699136674404144,
                -0.33594903349876404
            ],
            "type" : "VEC3"
        },
        {
            "bufferView" : 5,
            "componentType" : 5126,
            "count" : 382,
            "type" : "VEC3"
        },
        {
            "bufferView" : 6,
            "componentType" : 5126,
            "count" : 382,
            "type" : "VEC2"
        },
        {
            "bufferView" : 7,
            "componentType" : 5123,
            "count" : 624,
            "type" : "SCALAR"
        },
        {
            "bufferView" : 8,
            "componentType" : 5126,
            "count" : 24,
            "max" : [
                1,
                1.011415958404541,
                0.5171833634376526
            ],
            "min" : [
                -1,
                -0.9885851144790649,
                -1.9985706806182861
            ],
            "type" : "VEC3"
        },
        {
            "bufferView" : 9,
            "componentType" : 5126,
            "count" : 24,
            "type" : "VEC3"
        },
        {
            "bufferView" : 10,
            "componentType" : 5126,
            "count" : 24,
            "type" : "VEC2"
        },
        {
            "bufferView" : 11,
            "componentType" : 5123,
            "count" : 36,
            "type" : "SCALAR"
        }
    ],
    "bufferViews" : [
        {
            "buffer" : 0,
            "byteLength" : 2928,
            "byteOffset" : 0
        },
        {
            "buffer" : 0,
            "byteLength" : 2928,
            "byteOffset" : 2928
        },
        {
            "buffer" : 0,
            "byteLength" : 1952,
            "byteOffset" : 5856
        },
        {
            "buffer" : 0,
            "byteLength" : 960,
            "byteOffset" : 7808
        },
        {
            "buffer" : 0,
            "byteLength" : 4584,
            "byteOffset" : 8768
        },
        {
            "buffer" : 0,
            "byteLength" : 4584,
            "byteOffset" : 13352
        },
        {
            "buffer" : 0,
            "byteLength" : 3056,
            "byteOffset" : 17936
        },
        {
            "buffer" : 0,
            "byteLength" : 1248,
            "byteOffset" : 20992
        },
        {
            "buffer" : 0,
            "byteLength" : 288,
            "byteOffset" : 22240
        },
        {
            "buffer" : 0,
            "byteLength" : 288,
            "byteOffset" : 22528
        },
        {
            "buffer" : 0,
            "byteLength" : 192,
            "byteOffset" : 22816
        },
        {
            "buffer" : 0,
            "byteLength" : 72,
            "byteOffset" : 23008
        }
    ],
    "buffers" : [
        {
            "byteLength" : 23080,
            "uri" : "data:application/octet-stream;base64,"
        }
    ]
}
